<svg xmlns="http://www.w3.org/2000/svg" viewBox="0 0 25 25">
  <defs>
    <style>
      .cls-1 {
        fill: #fff;
      }
    </style>
  </defs>
  <g id="instagram" transform="translate(-109.468 -109.468)">
    <g id="Group_1" data-name="Group 1" transform="translate(109.468 109.468)">
      <path id="Path_5" data-name="Path 5" class="cls-1" d="M127.02,109.468h-10.1a7.456,7.456,0,0,0-7.447,7.448v10.1a7.456,7.456,0,0,0,7.448,7.448h10.1a7.456,7.456,0,0,0,7.448-7.448v-10.1a7.456,7.456,0,0,0-7.448-7.448Zm4.933,17.552a4.933,4.933,0,0,1-4.933,4.933h-10.1a4.933,4.933,0,0,1-4.933-4.933v-10.1a4.933,4.933,0,0,1,4.933-4.933h10.1a4.933,4.933,0,0,1,4.933,4.933Z" transform="translate(-109.468 -109.468)"/>
      <path id="Path_6" data-name="Path 6" class="cls-1" d="M187.478,180.2a7.276,7.276,0,1,0,7.276,7.276,7.285,7.285,0,0,0-7.276-7.276Zm0,11.722a4.446,4.446,0,1,1,4.446-4.446,4.446,4.446,0,0,1-4.446,4.446Z" transform="translate(-174.978 -174.978)"/>
    </g>
    <path id="Path_13" data-name="Path 13" class="cls-1" d="M317.743,164.594a1.983,1.983,0,1,1-1.983-1.983,1.983,1.983,0,0,1,1.983,1.983Z" transform="translate(-187.156 -48.789)"/>
  </g>
</svg>
