<svg xmlns="http://www.w3.org/2000/svg" viewBox="0 0 25 25">
  <defs>
    <style>
      .cls-1 {
        fill: #fff;
      }
    </style>
  </defs>
  <g id="facebook" transform="translate(-109.468 -109.466)">
    <g id="Group_3" data-name="Group 3" transform="translate(109.468 109.466)">
      <path id="Path_11" data-name="Path 11" class="cls-1" d="M131.1,109.466H112.837a3.369,3.369,0,0,0-3.369,3.369V131.1a3.369,3.369,0,0,0,3.369,3.369h9.007l.016-8.933h-2.321a.547.547,0,0,1-.548-.546l-.011-2.88a.548.548,0,0,1,.548-.55h2.317v-2.782c0-3.229,1.972-4.987,4.853-4.987h2.364a.548.548,0,0,1,.548.548v2.428a.548.548,0,0,1-.547.548H127.61c-1.566,0-1.87.744-1.87,1.837v2.409h3.442a.547.547,0,0,1,.544.612l-.341,2.88a.548.548,0,0,1-.544.483h-3.085l-.016,8.933H131.1a3.369,3.369,0,0,0,3.369-3.369V112.835a3.369,3.369,0,0,0-3.369-3.369Z" transform="translate(-109.468 -109.466)"/>
      <path id="Path_12" data-name="Path 12" class="cls-1" d="M254.313,312.1l.025-14.292h-.061V312.1Z" transform="translate(-241.935 -287.101)"/>
    </g>
  </g>
</svg>
