<svg xmlns="http://www.w3.org/2000/svg" viewBox="0 0 107.929 105.288">
  <defs>
    <style>
      .cls-1 {
        fill: #fff;
      }
    </style>
  </defs>
  <g id="github-logo" transform="translate(0 -5.365)">
    <path id="Path_15" data-name="Path 15" class="cls-1" d="M100.69,32.242A53.729,53.729,0,0,0,81.051,12.6,52.782,52.782,0,0,0,53.964,5.365,52.788,52.788,0,0,0,26.877,12.6,53.723,53.723,0,0,0,7.237,32.242,52.786,52.786,0,0,0,0,59.327,52.444,52.444,0,0,0,10.294,91.052a52.852,52.852,0,0,0,26.595,19.5,3.145,3.145,0,0,0,2.81-.491,2.748,2.748,0,0,0,.913-2.107q0-.211-.035-3.794T40.541,97.9l-1.616.28a20.616,20.616,0,0,1-3.9.246,29.713,29.713,0,0,1-4.883-.492,10.912,10.912,0,0,1-4.708-2.106,8.915,8.915,0,0,1-3.091-4.321l-.7-1.617a17.558,17.558,0,0,0-2.213-3.583,8.479,8.479,0,0,0-3.056-2.67l-.492-.352a5.158,5.158,0,0,1-.913-.844,3.855,3.855,0,0,1-.632-.984q-.211-.493.351-.809a4.557,4.557,0,0,1,2.038-.314l1.4.21a10.257,10.257,0,0,1,3.478,1.686,11.341,11.341,0,0,1,3.408,3.653,12.386,12.386,0,0,0,3.9,4.392,8.273,8.273,0,0,0,4.6,1.51,19.982,19.982,0,0,0,4.005-.35,13.975,13.975,0,0,0,3.162-1.055,11.385,11.385,0,0,1,3.443-7.238,48.114,48.114,0,0,1-7.2-1.265,28.677,28.677,0,0,1-6.6-2.742,18.916,18.916,0,0,1-5.657-4.707,22.623,22.623,0,0,1-3.688-7.378,35.085,35.085,0,0,1-1.44-10.54A20.494,20.494,0,0,1,25.084,42.04q-2.6-6.393.491-14.333,2.038-.633,6.043.948a42.247,42.247,0,0,1,5.867,2.706q1.863,1.123,2.986,1.9a50.746,50.746,0,0,1,26.983,0l2.67-1.686a37.815,37.815,0,0,1,6.463-3.092q3.724-1.4,5.693-.772,3.161,7.94.561,14.333a20.5,20.5,0,0,1,5.552,14.475,35.477,35.477,0,0,1-1.44,10.574,21.745,21.745,0,0,1-3.722,7.378,19.644,19.644,0,0,1-5.693,4.673,28.731,28.731,0,0,1-6.605,2.741,48.062,48.062,0,0,1-7.2,1.266q3.652,3.161,3.653,9.977V107.95a2.8,2.8,0,0,0,.879,2.107,3.052,3.052,0,0,0,2.775.491,52.845,52.845,0,0,0,26.6-19.5,52.455,52.455,0,0,0,10.293-31.724A52.829,52.829,0,0,0,100.69,32.242Z"/>
  </g>
</svg>
