<svg xmlns="http://www.w3.org/2000/svg" xmlns:xlink="http://www.w3.org/1999/xlink" viewBox="0 0 961 1080"><defs><style>.cls-1{fill:url(#linear-gradient);}.cls-2{fill:#63bbf7;opacity:0.2;}.cls-3{fill:#2d9df9;}.cls-13,.cls-3{opacity:0.4;}.cls-4{fill:#007fff;}.cls-5{fill:#6cca51;}.cls-6{fill:#0575c1;}.cls-12,.cls-7{fill:#707070;}.cls-11,.cls-7{stroke:#2b2b2b;}.cls-11,.cls-30,.cls-7{stroke-miterlimit:10;}.cls-8{fill:#f3f4f7;}.cls-9{fill:#2b2b2b;}.cls-10{fill:#fff;}.cls-11,.cls-27{fill:#d8d8d8;}.cls-14{fill:#bfbcbb;}.cls-15{fill:#e02f6a;}.cls-16{fill:#2d2c2c;opacity:0.6;}.cls-17{fill:#ff2f6c;}.cls-18{fill:#d37250;}.cls-19{fill:#ff8a5b;}.cls-20{fill:#d32f50;}.cls-21{fill:#bad64d;}.cls-22{fill:#b7b7b7;}.cls-23{fill:#4d4d81;}.cls-24{fill:url(#linear-gradient-2);}.cls-25{fill:#e2e2e2;}.cls-26{fill:#25ced1;}.cls-28{fill:#d3d3d3;}.cls-29{fill:#001b48;}.cls-30{fill:none;stroke:#000;stroke-width:2.17px;}</style><linearGradient id="linear-gradient" x1="22.87" y1="47.65" x2="947.96" y2="1044.02" gradientUnits="userSpaceOnUse"><stop offset="0" stop-color="#591da9"/><stop offset="1" stop-color="#051960"/></linearGradient><linearGradient id="linear-gradient-2" x1="435.24" y1="343.17" x2="522.5" y2="343.17" gradientTransform="translate(40.11 -30.21) rotate(5)" gradientUnits="userSpaceOnUse"><stop offset="0" stop-color="#6681ea"/><stop offset="1" stop-color="#7e43aa"/></linearGradient></defs><title>Asset 3</title><g id="Layer_2" data-name="Layer 2"><g id="home-image"><rect class="cls-1" width="960" height="1080"/><path class="cls-2" d="M961,1080V542.86h-.57c-379,0-701.79,223.91-823.43,537.14Z"/><path class="cls-3" d="M961,1080V589.05h-.52C614,589,319,793.7,207.85,1080Z"/><path class="cls-4" d="M960,1080V632.7h-.47c-315.65,0-584.41,186.46-685.7,447.3Z"/><rect class="cls-5" x="441.06" y="914.65" width="169.17" height="45.88" rx="22.94" ry="22.94"/><rect class="cls-5" x="583.47" y="1001.63" width="97.49" height="34.41" rx="15.08" ry="15.08"/><path class="cls-5" d="M346.44,1064.92v-4.25a15.13,15.13,0,0,0-15.08-15.08h-43q-7.75,17-14.53,34.41h57.49A15.13,15.13,0,0,0,346.44,1064.92Z"/><path class="cls-5" d="M961,780.84H891.23a23,23,0,0,0-22.94,22.94h0a23,23,0,0,0,22.94,22.94H961Z"/><path class="cls-5" d="M961,846.79H814.77a34.51,34.51,0,0,0-34.41,34.41h0a34.51,34.51,0,0,0,34.41,34.41H961Z"/><path class="cls-5" d="M652.29,747.39a23,23,0,0,0,22.93-22.94h0a23,23,0,0,0-22.93-22.93H640.08a741.74,741.74,0,0,0-85.48,45.87Z"/><rect class="cls-6" x="596.47" y="809.63" width="97.49" height="34.41" rx="15.08" ry="15.08"/><rect class="cls-6" x="858.47" y="1018.63" width="97.49" height="34.41" rx="15.08" ry="15.08"/><rect class="cls-7" x="736.42" y="173.66" width="34.92" height="4.36" rx="2.18" ry="2.18" transform="translate(843.06 -593.12) rotate(83.49)"/><rect class="cls-7" x="781.07" y="207.33" width="64.88" height="8.11" rx="4.05" ry="4.05" transform="translate(-15.55 349.74) rotate(-24.04)"/><path class="cls-8" d="M776.4,223A18.54,18.54,0,0,1,758,206.58L751.23,147a18.45,18.45,0,0,1,10.87-19l24.41-10.89a18.34,18.34,0,0,1,7.54-1.61,18.55,18.55,0,0,1,13.9,6.27l39.61,44.9a18.53,18.53,0,0,1-6.35,29.18L784,221.42A18.54,18.54,0,0,1,776.4,223Z"/><path class="cls-9" d="M794.05,115v1a18,18,0,0,1,13.53,6.1l39.6,44.9a18,18,0,0,1-6.17,28.4L783.74,221a18,18,0,0,1-25.26-14.44L751.73,147a18,18,0,0,1,10.57-18.5l24.41-10.89a18.05,18.05,0,0,1,7.34-1.56v-1m0,0a19.08,19.08,0,0,0-7.75,1.65l-24.41,10.89a19,19,0,0,0-11.16,19.53l6.76,59.55a19,19,0,0,0,26.66,15.23l57.26-25.54a19,19,0,0,0,6.52-30l-39.6-44.9A19,19,0,0,0,794.05,115Z"/><path class="cls-10" d="M797.79,199.37a23.94,23.94,0,1,1,9.72-2.08A23.69,23.69,0,0,1,797.79,199.37Z"/><path d="M797.76,152.12h0a23.33,23.33,0,0,1,9.51,44.63,23.05,23.05,0,0,1-9.48,2,23.33,23.33,0,0,1,0-46.66m0-1.18a24.51,24.51,0,1,0,22.39,14.53,24.51,24.51,0,0,0-22.39-14.53Z"/><circle class="cls-11" cx="797.83" cy="175.42" r="26.62"/><circle class="cls-12" cx="794.43" cy="176.02" r="22.02"/><g class="cls-13"><path class="cls-14" d="M846.93,166.12l-18.65-20.91c.51,1,1,1.93,1.46,2.94A48.28,48.28,0,0,1,812.65,208l27.76-12.25A18.71,18.71,0,0,0,846.93,166.12Z"/></g><path class="cls-15" d="M761.17,150.62a2.85,2.85,0,0,1-1.16-5.46,2.91,2.91,0,0,1,1.16-.25,2.85,2.85,0,0,1,2.66,3.87,2.79,2.79,0,0,1-1.5,1.59A2.91,2.91,0,0,1,761.17,150.62Z"/><path class="cls-9" d="M761.17,145.41h0a2.35,2.35,0,0,1,1,4.5,2.31,2.31,0,0,1-1,.21,2.36,2.36,0,0,1-1-4.5,2.31,2.31,0,0,1,1-.21m0-1a3.28,3.28,0,0,0-1.36.3,3.32,3.32,0,1,0,1.36-.3Z"/><path class="cls-16" d="M833.48,207l8.15-3.64a3.71,3.71,0,1,0-3-6.77L815.27,207Z"/><circle class="cls-15" cx="101.5" cy="106.5" r="47.5"/><circle class="cls-17" cx="94.69" cy="102.31" r="39.69"/><circle class="cls-18" cx="53.5" cy="220.5" r="10.5"/><circle class="cls-19" cx="52" cy="220" r="9"/><circle class="cls-20" cx="83" cy="113" r="7"/><circle class="cls-20" cx="95.5" cy="85.5" r="3.5"/><circle class="cls-20" cx="72.5" cy="91.5" r="3.5"/><polygon class="cls-8" points="576 188 576.82 203.18 592 204 576.82 204.82 576 220 575.18 204.82 560 204 575.18 203.18 576 188"/><polygon class="cls-5" points="190 865 190.72 878.28 204 879 190.72 879.72 190 893 189.28 879.72 176 879 189.28 878.28 190 865"/><polygon class="cls-21" points="208 172 208.41 179.59 216 180 208.41 180.41 208 188 207.59 180.41 200 180 207.59 179.59 208 172"/><polygon class="cls-17" points="858 428 858.41 435.59 866 436 858.41 436.41 858 444 857.59 436.41 850 436 857.59 435.59 858 428"/><path class="cls-17" d="M611.48,398.36a4.39,4.39,0,0,1,3.75-7.21,4.4,4.4,0,1,1-3.75,7.21Z"/><path class="cls-22" d="M562.4,453.85a49,49,0,0,1,3,6.26c1.2,3,2.39,6,2.55,9.73.14,3.43-.63,7-3.88,13.23-2.14,4.1-6.48,11.48-17.62,22.9-.7.73-1.38,1.41-2,2.07-4.35-4.09-3.5-3.13-6.42-6.2-3.81-4-5.59-6.11-6.65-9.41a18.5,18.5,0,0,1-.64-8.2c.62-4.36,2.95-8.85,11.64-16.64,12-10.71,13.07-9.71,19.17-13.58h0Z"/><path class="cls-22" d="M544,429.38c2-2.07-.85,1.55,2.56-2.15s5.21-5.66,6.77-7.56a74.63,74.63,0,0,0,8.54-12.15c2.09-3.79,3.4-6.18,4.25-9.81a24.84,24.84,0,0,0-.17-13.59,25.48,25.48,0,0,0-7.2-10.82c-3.33-3.26-4.43-3.93-6.69-5l-.4-.08a58.8,58.8,0,0,0,.94-8.6c1.66.56,2.26,1.09,5.07,2.72A37.56,37.56,0,0,1,570.81,375a32.21,32.21,0,0,1,3.82,26.13c-1.35,5.16-3.51,8.67-5.84,12.39a125.91,125.91,0,0,1-7.67,10.19c-5.76,7.26-5.87,7.05-9.15,11.42a16,16,0,0,0-1.78,2.6l-4.72-5.88-1.84-2.2Z"/><path class="cls-23" d="M522.87,483.23a133.61,133.61,0,0,1-4.18,14.2,96.72,96.72,0,0,1-3.92,9.51,65.72,65.72,0,0,1-10.2.61v-.15c-.08-1.37-.18-3.5-.14-6.12,0-1.93.14-3.84.79-10.43.18-1.81.43-4.22.74-7.08A104.87,104.87,0,0,0,522.87,483.23Z"/><path class="cls-24" d="M452.58,328a66.08,66.08,0,0,1,9.13-11.09,9.47,9.47,0,0,0,2.81-2.66,51.55,51.55,0,0,1,5.33-4.33h.07a61.63,61.63,0,0,1,7.53-.71,43.43,43.43,0,0,1,8.76.77,52.85,52.85,0,0,1,8.58,2.79,83.54,83.54,0,0,1,13.07,5.89,71.74,71.74,0,0,1,9,6.22c4,3.24,6.36,5.08,8.78,8.23,2.1,2.75,5,6.55,5.73,12.05.53,4.05-.36,7.22-1.73,12.07a54.25,54.25,0,0,1-3.52,9.19c-5.07.28-9.63,2.65-11.43,6.47,0,0-2,4.17-.2,10.57.24.86.56,1.78.56,1.78.18.52.35,1,.49,1.31a25.32,25.32,0,0,1-5.25,5.65,17.2,17.2,0,0,1-4.95,2.28,48.05,48.05,0,0,1-11.08,2.42,53.7,53.7,0,0,1-12.18-.38,73.5,73.5,0,0,1-14.65-3.32c-5.28-1.79-7.92-2.69-11.1-5a33.68,33.68,0,0,1-8.05-8.85,56.84,56.84,0,0,1-3.52-6.42,9.06,9.06,0,0,1-.55-1.4v0l-.21-1.18h0a62.71,62.71,0,0,1-.86-9.74,60.11,60.11,0,0,1,2.08-16.11c.23-.85.48-1.68.75-2.5a41.63,41.63,0,0,1,2.23-4.37l1.68-4.86C450.72,331,451.65,329.4,452.58,328Z"/><path class="cls-8" d="M522.87,483.23a82.61,82.61,0,0,0,2-17.84c0-8-.06-14.93-3.81-21.9l0,0c.79-.06,4.72-1,6.09-1.1,13.59-.92,17.46-1.24,24.31,2.13,2.51,1.23,6.57,4.7,10,9.52-6.1,3.87-7.21,2.87-19.17,13.58-8.69,7.79-11,12.28-11.64,16.64a18.5,18.5,0,0,0,.64,8.2c1.06,3.3,2.84,5.4,6.65,9.41,2.92,3.07,2.07,2.11,6.42,6.2-3.25,3.22-6.11,5.8-9.8,9.12-7,6.31-9.71,8.22-18.37,16-3.77,3.39-3.71,3.44-8.12,7.43-6.17,5.59-4.33,4.19-7.75,7.13l-.28-.09c1-2.88,1.91-5.58,2.64-7.51,5.74-15.16,6-17.78,9-25.68,1.34-3.49,2.29-5.83,3-7.54a96.72,96.72,0,0,0,3.92-9.51A133.61,133.61,0,0,0,522.87,483.23Z"/><path class="cls-8" d="M506,483.77c-1.35-.08-2.7-.2-4-.36a62.8,62.8,0,0,1-19.87-6.19c-2.37-1.15-4.42-2.27-6.13-3.22a88.07,88.07,0,0,1-9.25-5.85,69.63,69.63,0,0,1,3-15.74c2-6.15,3.75-11.49,8.89-16.19a28.56,28.56,0,0,1,14.18-6.91,26.17,26.17,0,0,1,14.82,1.29,26.89,26.89,0,0,1,12.59,11.29c.14.23.28.46.41.69,0,0,0,0,0,0,.18.29.34.59.5.89,3.75,7,3.83,13.86,3.81,21.9a82.61,82.61,0,0,1-2,17.84A104.87,104.87,0,0,1,506,483.77Z"/><path class="cls-8" d="M479.2,502.25l1.67.7a61.69,61.69,0,0,0,17.95,4.28c2,.21,3.95.31,5.75.32a65.72,65.72,0,0,0,10.2-.61c-.72,1.71-1.67,4.05-3,7.54-3,7.9-3.29,10.52-9,25.68-.73,1.93-1.65,4.63-2.64,7.51-1.53,4.46-3.2,9.32-4.52,12.23-2.82,6.25-6.25,14.23-12.9,23.32a105.59,105.59,0,0,1-13.55,15.11c-1.28,1.18-2.56,2.29-3.81,3.35-.93-.14-.72.07-1.22,0a16.5,16.5,0,0,1-2.67-.67,29.92,29.92,0,0,1-9.08-4.86,32.94,32.94,0,0,1-8-9.53,36.56,36.56,0,0,0-3.94-5.43L440,581l.08-.14c1-1.68,4.66-7.9,9.68-17.48,4.38-8.36,4.44-9.08,7.36-14.29s6.86-11.1,7.92-12.89c3-5.12,1.93-10,1.09-20.27-.16-2-.29-3.95-.39-5.82-.3-5.57-.33-10.65-.22-16.29h.17C472.92,499.17,475.66,500.71,479.2,502.25Z"/><path class="cls-17" d="M504.57,507.4v.15c-1.8,0-3.75-.11-5.75-.32A61.69,61.69,0,0,1,480.87,503l-1.67-.7c0-.48,0-1.86.18-5.54.14-3.19.43-5.59.64-7.41a87.52,87.52,0,0,1,2-12.08,62.8,62.8,0,0,0,19.87,6.19c1.33.16,2.68.28,4,.36-.31,2.86-.56,5.27-.74,7.08-.65,6.59-.75,8.5-.79,10.43C504.39,503.9,504.49,506,504.57,507.4Z"/><path class="cls-8" d="M514.6,412.21a36.26,36.26,0,0,0,9.36-4.52l.18.27c3.54,3.48,4.87,5.06,8.42,8.54l11.07,13.19,1.84,2.2,4.72,5.88c0,.1,0,.11.07.08l9.29,11.56a48.66,48.66,0,0,1,2.85,4.44l-.87.15h0c-3.43-4.82-7.49-8.29-10-9.52-6.85-3.37-10.72-3.05-24.31-2.13-1.37.1-5.3,1-6.09,1.1l0,0c-.16-.3-.32-.6-.5-.89,0,0,0,0,0,0A48.37,48.37,0,0,0,513,430.23c-1-1.09-2.8-3-4.48-4.75-1.51-1.52-3-3-5-4.79-.43-.38-2.64-2.31-4.57-3.67a32.13,32.13,0,0,0-9.32-4.45c2.05.32,3.81.5,5.22.63C501.9,413.87,507.61,414.42,514.6,412.21Z"/><path class="cls-13" d="M514.6,413.21a36.26,36.26,0,0,0,9.36-4.52l.18.27c3.54,3.48,4.87,5.06,8.42,8.54l11.07,13.19,1.84,2.2,4.72,5.88c0,.1,0,.11.07.08l9.29,11.56a48.66,48.66,0,0,1,2.85,4.44l-.87.15h0c-3.43-4.82-7.49-8.29-10-9.52-6.85-3.37-10.72-3.05-24.31-2.13-1.37.1-5.3,1-6.09,1.1l0,0c-.16-.3-.32-.6-.5-.89,0,0,0,0,0,0A48.37,48.37,0,0,0,513,431.23c-1-1.09-2.8-3-4.48-4.75-1.51-1.52-3-3-5-4.79-.43-.38-2.64-2.31-4.57-3.67a32.13,32.13,0,0,0-9.32-4.45c2.05.32,3.81.5,5.22.63C501.9,414.87,507.61,415.42,514.6,413.21Z"/><path class="cls-23" d="M479.38,496.71c-.17,3.68-.19,5.06-.18,5.54-3.54-1.54-6.28-3.08-13.49-8.44h-.17c.1-4.72.3-9.83.55-15.92.14-3.71.34-6.91.59-9.74a88.07,88.07,0,0,0,9.25,5.85c1.71.95,3.76,2.07,6.13,3.22a87.52,87.52,0,0,0-2,12.08C479.81,491.12,479.52,493.52,479.38,496.71Z"/><path class="cls-25" d="M479.39,409.9c2.63.88,8.32,2.35,13.65.43,1.8-.65,4.52-2.18,10-5.24,5.29-3,7.94-4.46,10-5.91A52.42,52.42,0,0,0,524.87,388c3.47-4.55,5.1-8.41,8.15-15.58a86.69,86.69,0,0,0,4.49-12.5c1.58-5.92,2.91-10.91,2.2-17.46a33.81,33.81,0,0,0-3.1-11.13c-3.52-7.23-8.92-11.15-13-14.05-3.79-2.67-6.75-4-12.33-6.5a113.17,113.17,0,0,0-17.78-6.31c-3.21-.85-12.3.14-14.26.37a53.44,53.44,0,0,1,13.15-3.19,55,55,0,0,1,24.19,2.8,56.8,56.8,0,0,1,23.69,16.33c3.36,3.73,7.49,8.41,10.16,15.83s2.5,14,2.28,20.56c0,.8-.06,1.63-.1,2.47a58.8,58.8,0,0,1-.94,8.6,46.11,46.11,0,0,1-1.9,7c-2.36,6.6-5.52,11-8.83,15.53a62.91,62.91,0,0,1-11.28,12.59,66.49,66.49,0,0,1-5.68,4.34,36.26,36.26,0,0,1-9.36,4.52c-7,2.21-12.7,1.66-19.77,1-1.41-.13-3.17-.31-5.22-.63A59.67,59.67,0,0,1,479.35,410Z"/><path class="cls-22" d="M464.09,601.71c.5,0,.29-.17,1.22,0a106.79,106.79,0,0,1-12.19,8.82l.05.17-5.14-4s-5.9-7.68-7.93-10.2-5.23-6.23-5.23-6.23l-.31-.36c1.34-2.11,3.25-5.16,5.46-8.88l.39.23a36.56,36.56,0,0,1,3.94,5.43,32.94,32.94,0,0,0,8,9.53,29.92,29.92,0,0,0,9.08,4.86A16.5,16.5,0,0,0,464.09,601.71Z"/><path class="cls-8" d="M417.29,562.69c2.6-2.15,5.59-4.68,8.77-7.51,7.89-7,18.3-16.28,29.1-30a111.19,111.19,0,0,0,10.48-15h.12c.1,1.87.23,3.8.39,5.82.84,10.3,1.93,15.15-1.09,20.27-1.06,1.79-5,7.73-7.92,12.89s-3,5.93-7.36,14.29c-5,9.58-8.68,15.8-9.68,17.48L440,581c-2.21,3.72-4.12,6.77-5.46,8.88a10,10,0,0,0-6.62-1.94,9.16,9.16,0,0,0-7.14,4.13,9,9,0,0,0-.65,7.41l0,0a12.29,12.29,0,0,0-3.82-2.4c-3.62-1.32-9-7.39-11.3-10.49-2.11-2.84-5.26-8-6.08-9.38,1.58-1.17,3.13-2.34,4.61-3.49,2.93-2.27,5.62-4.43,7.89-6.26C413,566.23,415,564.61,417.29,562.69Z"/><path class="cls-8" d="M420.1,599.49l0,0a9,9,0,0,1,.65-7.41,9.16,9.16,0,0,1,7.14-4.13,10,10,0,0,1,6.62,1.94l.31.36s3.12,3.63,5.23,6.23,7.93,10.2,7.93,10.2l5.14,4A15.81,15.81,0,0,1,453,620c-2.27,6.59-8.47,9.17-10.37,10-7.32,3-14,.71-16.29-.07-2.94-1-9.47-3.28-12.71-9.93-.69-1.44-3.92-8.61-.05-15A14.22,14.22,0,0,1,420.1,599.49Z"/><path class="cls-8" d="M454.1,432.14c1.31,1.84,2.42,3.5,3.34,4.94,0,0-9.83,7.11-16,12.18a133.61,133.61,0,0,0-17.09,16.84c-3.58-4.33-7.49-8.77-11.74-13.25a266.3,266.3,0,0,0-23.22-21.72,71,71,0,0,1,23.93-25.71,71.56,71.56,0,0,1,8.6-4.71c.08.07,7.51,5.66,13.94,11.4a120.62,120.62,0,0,1,13.7,14.1C451.28,428.32,452.79,430.31,454.1,432.14Zm-29.31,21.1a2,2,0,1,0-2.2,1.84A2,2,0,0,0,424.79,453.24ZM417.87,416l5.18-4.35-4.35-5.18-5.18,4.35Zm0,31.18a2,2,0,1,0-2.2,1.84A2,2,0,0,0,417.86,447.2Zm-12.51-20.06,5.18-4.34-4.35-5.19L401,422Z"/><path class="cls-8" d="M444.72,372.83a56.84,56.84,0,0,0,3.52,6.42,33.68,33.68,0,0,0,8.05,8.85c3.18,2.36,5.82,3.26,11.1,5A73.5,73.5,0,0,0,482,396.47a53.7,53.7,0,0,0,12.18.38,48.05,48.05,0,0,0,11.08-2.42,17.2,17.2,0,0,0,4.95-2.28,25.32,25.32,0,0,0,5.25-5.65c-.14-.35-.31-.79-.49-1.31,0,0-.32-.92-.56-1.78-1.76-6.4.2-10.57.2-10.57,1.8-3.82,6.36-6.19,11.43-6.47a54.25,54.25,0,0,0,3.52-9.19c1.37-4.85,2.26-8,1.73-12.07-.71-5.5-3.63-9.3-5.73-12.05-2.42-3.15-4.73-5-8.78-8.23a71.74,71.74,0,0,0-9-6.22,83.54,83.54,0,0,0-13.07-5.89,52.85,52.85,0,0,0-8.58-2.79,43.43,43.43,0,0,0-8.76-.77,61.63,61.63,0,0,0-7.53.71h-.07a45.41,45.41,0,0,1,7.22-4.14c.39-.17,1.11-.5,2.15-.91,2-.23,11-1.22,14.26-.37a113.17,113.17,0,0,1,17.78,6.31c5.58,2.5,8.54,3.83,12.33,6.5,4.1,2.9,9.5,6.82,13,14.05a33.81,33.81,0,0,1,3.1,11.13c.71,6.55-.62,11.54-2.2,17.46a86.69,86.69,0,0,1-4.49,12.5c-3,7.17-4.68,11-8.15,15.58A52.42,52.42,0,0,1,513,399.18c-2.08,1.45-4.73,2.93-10,5.91-5.45,3.06-8.17,4.59-10,5.24-5.33,1.92-11,.45-13.65-.43l0,.13c-1-.34-2.08-.74-3.15-1.18a62.26,62.26,0,0,1-12.94-7.24,45.81,45.81,0,0,1-8.85-7.56,43,43,0,0,1-7.14-11.49,49.49,49.49,0,0,1-3.1-11.13A9.06,9.06,0,0,0,444.72,372.83Z"/><circle class="cls-26" cx="422.77" cy="453.06" r="2.03"/><rect class="cls-17" x="414.9" y="407.87" width="6.76" height="6.76" transform="translate(-166.46 364.75) rotate(-39.97)"/><path class="cls-8" d="M437.57,229.64c.88,5.16-3,8.76-3.52,9.2a11.29,11.29,0,0,1-7.71,2.72,22.31,22.31,0,0,0-4.83.93c-4.63,1.43-5.59,3.37-10.64,5.18a24.45,24.45,0,0,1-6.24,1.49c-2.3.22-3.42,0-6.12.14a32.67,32.67,0,0,0-5.51.88,29,29,0,0,1-10.91-22.68c0-3.66,0-10.2,4.78-15.87,6.31-7.49,15.79-7.38,16.94-7.35,2.14.06,9.89.28,15,6.75s3.65,14.09,3.42,15.23a8.58,8.58,0,0,1,9.17-3.95C436.42,223.55,437.5,229.23,437.57,229.64Z"/><circle class="cls-26" cx="415.83" cy="447.02" r="2.03"/><path class="cls-27" d="M389.28,537.35c6.08,6.34,11.17,10.79,14.72,13.86,7.09,6.15,12.08,10.44,13.29,11.48-2.32,1.92-4.32,3.54-5.89,4.78-2.27,1.83-5,4-7.89,6.26l-.41-.53c-1.47-2.3-.22.08-2.77-3.3-1.75-2.32-4.62-6-9.22-11-2.36-2.58-4.48-4.75-6.33-6.59-2.27-2.24-4.13-4-5.53-5.31a237.92,237.92,0,0,1-19.85-21.42c-2-2.49-5.18-6.55-19.76-30.25-5.52-9-6.13-10.31-9.17-15.4h0a123.94,123.94,0,0,1,6.33-14c1.23-2.34,2.48-4.53,3.73-6.6.44,1.23,2.65,7.34,4.83,12.48.71,1.69,1.42,3.28,2.06,4.55,1.95,3.85,2.49,4.39,13.06,21.51,7.74,12.54,9.64,15.79,11.44,18.46.52.77,1,1.49,1.67,2.37A186.22,186.22,0,0,0,389,537Z"/><path class="cls-22" d="M398.9,577.22c-1.39,1-2.8,2-4.23,3-11.89,8.33-19.87,13.93-28.31,16.86-3.69-3.47-4.09-4-6.82-11.11-2.57-6.76-1.9-10.63-1.69-11.69a18.59,18.59,0,0,1,3.35-7.18c3.59-4.85,7.89-6.31,14.41-9.6,3.76-1.88,2.86-.86,8.92-5l.25-.25c1.85,1.84,4,4,6.33,6.59,4.6,5,7.47,8.67,9.22,11,2.55,3.38,1.3,1,2.77,3.3l.41.53C402,574.88,400.48,576.05,398.9,577.22Z"/><path class="cls-8" d="M430.16,249.63c1.48,3.27,3.07,7,4.69,11,3.48,8.65,5.66,14.09,7.61,21.71,2.79,10.92,4.44,17.38,4.5,26.19,0,1.52,0,3.22.11,5.08h-.22a21.74,21.74,0,0,1-5.91,9.33,65.93,65.93,0,0,1-8.73,6.7,63.48,63.48,0,0,1-13.5,7,42.45,42.45,0,0,1-12.49,3c-4.43.29-5.61.26-7.85-.26-.06-.37-.11-.75-.17-1.13-2.69-17.91-2.93-18.11-3.88-25.46-1.5-11.48-2.58-19.8-2.74-30.79,0-1.39.37-10.11.76-18.07a28,28,0,0,1,5.84-3.07c5.2-2.15,7.06-1.87,15.29-4.09a78.58,78.58,0,0,0,14-4.89,5.57,5.57,0,0,0,2.56-2.15Z"/><path class="cls-22" d="M430.16,249.63l-.12.06a5.57,5.57,0,0,1-2.56,2.15,78.58,78.58,0,0,1-14,4.89c-8.23,2.22-10.09,1.94-15.29,4.09a28,28,0,0,0-5.84,3.07c.33-7.16.66-13.71.66-13.71a32.67,32.67,0,0,1,5.51-.88c2.7-.19,3.82.08,6.12-.14a24.45,24.45,0,0,0,6.24-1.49c5.05-1.81,6-3.75,10.64-5.18a22.31,22.31,0,0,1,4.83-.93C427.48,243.87,428.77,246.57,430.16,249.63Z"/><rect class="cls-21" x="402.39" y="419" width="6.77" height="6.77" transform="translate(-176.57 359.64) rotate(-40)"/><path class="cls-28" d="M380.32,465l17.53,24.61a105.11,105.11,0,0,0-11.72,9.84,85.37,85.37,0,0,0-9,10.07c-2.78,3.68-3.55,4.09-5,6.7l-.19.13c-1.8-2.67-3.7-5.92-11.44-18.46-10.57-17.12-11.11-17.66-13.06-21.51-.64-1.27-1.35-2.86-2.06-4.55l.09,0s3.51-4.21,7.2-8.54A62.77,62.77,0,0,1,368,450.31Z"/><path class="cls-8" d="M520.15,441.89a26.89,26.89,0,0,0-12.59-11.29,26.17,26.17,0,0,0-14.82-1.29,28.56,28.56,0,0,0-14.18,6.91c-5.14,4.7-6.92,10-8.89,16.19a69.63,69.63,0,0,0-3,15.74c-.25,2.83-.45,6-.59,9.74-.25,6.09-.45,11.2-.55,15.92-.11,5.64-.08,10.72.22,16.29h-.12a111.19,111.19,0,0,1-10.48,15c-10.8,13.76-21.21,23-29.1,30-3.18,2.83-6.17,5.36-8.77,7.51-1.21-1-6.2-5.33-13.29-11.48-3.55-3.07-8.64-7.52-14.72-13.86L389,537a186.22,186.22,0,0,1-15.37-18.32c-.64-.88-1.15-1.6-1.67-2.37l.19-.13c1.45-2.61,2.22-3,5-6.7a85.37,85.37,0,0,1,9-10.07,105.11,105.11,0,0,1,11.72-9.84L380.32,465,368,450.31a62.77,62.77,0,0,0-15.38,12.9c-3.69,4.33-7.18,8.51-7.2,8.54l-.09,0c-2.18-5.14-4.39-11.25-4.83-12.48a148.69,148.69,0,0,1,15.64-20.9,177,177,0,0,1,32.42-29.08c.91-.62,1.9-1.3,3-2,9.6-19.61,10.74-34.62,10-44.67l.28,0c1.35.39-.46-.49,1.72-.19a41.31,41.31,0,0,0,9.49.15,44.71,44.71,0,0,0,16.7-4.65,46.54,46.54,0,0,0,11.6-8.48c2-2,3.3-4.81,4.59-7.6-.27.82-.52,1.65-.75,2.5a60.11,60.11,0,0,0-2.08,16.11,62.71,62.71,0,0,0,.86,9.74h0a5.09,5.09,0,0,0,.21,1.18v0a49.49,49.49,0,0,0,3.1,11.13,43,43,0,0,0,7.14,11.49,45.81,45.81,0,0,0,8.85,7.56,62.26,62.26,0,0,0,12.94,7.24c1.07.44,2.13.84,3.15,1.18a59.67,59.67,0,0,0,10.26,2.54,32.13,32.13,0,0,1,9.32,4.45c1.93,1.36,4.14,3.29,4.57,3.67,2,1.77,3.52,3.27,5,4.79,1.68,1.71,3.53,3.66,4.48,4.75a48.37,48.37,0,0,1,7.55,12.35C520.43,442.35,520.29,442.12,520.15,441.89Zm-62.71-4.81c-.92-1.44-2-3.1-3.34-4.94s-2.82-3.82-4.54-5.93a120.62,120.62,0,0,0-13.7-14.1c-6.43-5.74-13.86-11.33-13.94-11.4a71.56,71.56,0,0,0-8.6,4.71,71,71,0,0,0-23.93,25.71,266.3,266.3,0,0,1,23.22,21.72c4.25,4.48,8.16,8.92,11.74,13.25a133.61,133.61,0,0,1,17.09-16.84C447.61,444.19,457.44,437.08,457.44,437.08Z"/><path class="cls-23" d="M403.55,362.44c-2.18-.3-.37.58-1.72.19l-.28,0,0-.39c-.26-3.31-1.21-9.91-3.15-22.92,2.24.52,3.42.55,7.85.26a42.45,42.45,0,0,0,12.49-3,63.48,63.48,0,0,0,13.5-7,65.93,65.93,0,0,0,8.73-6.7,21.74,21.74,0,0,0,5.91-9.33h.22a25.2,25.2,0,0,0,2.08,8.69,35,35,0,0,0,2.27,4.28,14.34,14.34,0,0,0,1.16,1.38c-.93,1.44-1.86,3-2.74,4.67a56.28,56.28,0,0,0-3.91,9.23c-1.29,2.79-2.55,5.6-4.59,7.6a46.54,46.54,0,0,1-11.6,8.48,44.71,44.71,0,0,1-16.7,4.65A41.31,41.31,0,0,1,403.55,362.44Z"/><path class="cls-8" d="M259.35,508.9a39.49,39.49,0,0,0-6.82,1l0-.12s-2.64-.56-9.2-3.53l-2.57-1.17c2-7.77,4.43-16.24,4.39-23.45a34.52,34.52,0,0,0-2.62-12.78l.17-.12a23.89,23.89,0,0,0,6.6-7.44,27.39,27.39,0,0,0,3.7-11.22l0-.13c25.4,3.85,44.14,16.25,52.71,22.06,8.24,5.58,19.4,15.63,21.5,17.55l.05-.05c1-3.4,2.08-6.59,3.21-9.57h0c3,5.09,3.65,6.42,9.17,15.4,14.58,23.7,17.74,27.76,19.76,30.25A237.92,237.92,0,0,0,379.25,547c1.4,1.33,3.26,3.07,5.53,5.31l-.25.25c-6.06,4.12-5.16,3.1-8.92,5-6.52,3.29-10.82,4.75-14.41,9.6a18.59,18.59,0,0,0-3.35,7.18c-.21,1.06-.88,4.93,1.69,11.69,2.73,7.15,3.13,7.64,6.82,11.11a42.83,42.83,0,0,1-10,2.19c-9.67,1-17.45-1.27-22.17-2.62-8.48-2.42-13.67-6.34-24.72-12.34-7.57-4.12-21.61-14.54-29.69-17.54-1.39-.52-3.46-1.28-5.66-1.91l.08-.27a65.06,65.06,0,0,0-1.26-8.94,71.86,71.86,0,0,0-2.6-9.05A67.37,67.37,0,0,0,265.56,535c-2.32-4.28-7.38-10.86-8.91-12.82a14.15,14.15,0,0,0,1-1.79,19.44,19.44,0,0,0,1.68-11.4Z"/><path class="cls-22" d="M265.05,564.17c-1.34.6-2.37,2.14-3.38,4.14l0,0a75.8,75.8,0,0,0-2.29-8.69A80.52,80.52,0,0,0,255,547.68c-2.57-5.48-11.08-16.93-11.08-16.93.91-.18,8.43-1.76,12.77-8.54,1.53,2,6.59,8.54,8.91,12.82a67.37,67.37,0,0,1,4.76,11.62,71.86,71.86,0,0,1,2.6,9.05,65.06,65.06,0,0,1,1.26,8.94l-.08.27C270.76,563.94,267.11,563.27,265.05,564.17Z"/><path class="cls-8" d="M190.85,620.74l.36-.23s-2.23-3.59-1.91-5.26c0,0,8.71-46.47,35.28-85.17.62-.9,1.48-2.13,2.62-3.54l.07,0a20.76,20.76,0,0,0,5.83,3.23,20.36,20.36,0,0,0,10.78.94s8.51,11.45,11.08,16.93a80.52,80.52,0,0,1,4.38,11.92,75.8,75.8,0,0,1,2.29,8.69l0,0c-.93,1.81-1.84,4-2.95,6.17-2.13,4.12-2.11,5-5.1,11.78-2.12,4.81-3.91,8.42-7.48,15.64-.81,1.63-2.88,5.79-4.93,9.75-8.69,16.79-17.49,30.84-19.23,33.62l-12.55,19.27A16.32,16.32,0,0,1,201,667.2c-3.88.07-6.78-1.45-9.25-2.85a138.43,138.43,0,0,1-17.31-11.7c-10.61-8.22-10.76-7.77-15.89-12.25-9.66-8.42-11.1-11.74-11.63-14.6a17.61,17.61,0,0,1,1.15-9.72s0,0,0,0c.21-.5.39-.84.46-1a17,17,0,0,1,6.71-6.87c5.22-3.05,10.51-2.54,13.1-2.26C177.76,607,186,613.1,190.85,620.74Z"/><path class="cls-22" d="M256.65,522.21c-4.34,6.78-11.86,8.36-12.77,8.54a20.36,20.36,0,0,1-10.78-.94,20.76,20.76,0,0,1-5.83-3.23l-.07,0a49.77,49.77,0,0,1,5-5.3,46.58,46.58,0,0,1,17.9-10.65c.84-.26,1.67-.49,2.48-.68a39.49,39.49,0,0,1,6.82-1V509a19.44,19.44,0,0,1-1.68,11.4A14.15,14.15,0,0,1,256.65,522.21Z"/><path class="cls-22" d="M242.5,468.86a24.73,24.73,0,0,1-7.09,3.45,28,28,0,0,1-5.46,1.13,25,25,0,0,1-10.83-1.2,25.83,25.83,0,0,1-13.32-10.67l-.28-.38c5.52-4.08,9.67-7.15,15.74-9.47,3.7-1.41,11.65-4,26.69-2.41,1.7.17,3.38.38,5,.64l0,.13a27.39,27.39,0,0,1-3.7,11.22,23.89,23.89,0,0,1-6.6,7.44Z"/><path class="cls-22" d="M245.12,481.64c0,7.21-2.38,15.68-4.39,23.45-5.43-2.47-7.58-3.39-11.33-3.15.2-3.89.58-6.78.7-7.69a83.53,83.53,0,0,0,.88-10.11,52.12,52.12,0,0,0-1-10.7,28,28,0,0,0,5.46-1.13,24.73,24.73,0,0,0,7.09-3.45A34.52,34.52,0,0,1,245.12,481.64Z"/><path class="cls-8" d="M115.29,505.29a3.76,3.76,0,0,1,.16-.37c4-8.7,14.89-9.94,16.5-10.1a23.9,23.9,0,0,1,15.26,4.05c3,1.93,7.73,7.73,9.22,11,.42.93.81,1.84,1.17,2.74,11.89-14.78,19.75-24.55,30.19-35.3,9.93-10.22,15.53-14.49,17.71-16.1h0l.28.38a25.83,25.83,0,0,0,13.32,10.67,25,25,0,0,0,10.83,1.2,52.12,52.12,0,0,1,1,10.7,83.53,83.53,0,0,1-.88,10.11c-.12.91-.5,3.8-.7,7.69l-.32,0c-5.87.47-8.14,4.62-24.3,21.63-.88.93.23-.24-13.42,13.76,0,0-4.19,4.3-13.37,13.09a80.79,80.79,0,0,1-8.79,7.38,49.28,49.28,0,0,1-5.54,3.72h0a7.74,7.74,0,0,1-3,1c-4.18.35-7.27-3-12.21-7.86-13.22-13.13-11-9.29-23.78-23.13-6-6.44-8.37-9.12-9.66-13.74C114.44,515.78,113,510.6,115.29,505.29Z"/><path class="cls-29" d="M147,625.8c.53,2.86,2,6.18,11.63,14.6,5.13,4.48,5.28,4,15.89,12.25a138.43,138.43,0,0,0,17.31,11.7c2.47,1.4,5.37,2.92,9.25,2.85a16.32,16.32,0,0,0,8.39-2.66c-2,2.42-7.12,8.15-13.94,7.94a12.8,12.8,0,0,1-4.66-1.08c-10.13-4.25-20.06-12.57-23.74-15.66-10.63-8.91-16.77-14-19.3-20a28.2,28.2,0,0,1-2-8.32,23.06,23.06,0,0,1,.59-6.74,19.73,19.73,0,0,1,1.71-4.58A17.61,17.61,0,0,0,147,625.8Z"/><path class="cls-29" d="M115.29,505.29c-2.3,5.31-.85,10.49-.29,12.49,1.29,4.62,3.69,7.3,9.66,13.74,12.8,13.84,10.56,10,23.78,23.13,4.94,4.91,8,8.21,12.21,7.86a7.74,7.74,0,0,0,3-1l.11.21a12.68,12.68,0,0,1-6.24,3.12,11.26,11.26,0,0,1-3.55.1c-2.47-.35-4.26-1.84-7.73-4.75l-6.33-5.3-8.16-7.51c-4.8-4.49-8.75-8.55-11.86-11.9s-5.48-6.1-7.26-10.14a19.84,19.84,0,0,1-1.86-5.93C110.09,513.21,113.25,508,115.29,505.29Z"/><path class="cls-30" d="M444,370.21a62.71,62.71,0,0,1-.86-9.74,60.11,60.11,0,0,1,2.08-16.11c.23-.85.48-1.68.75-2.5a56.28,56.28,0,0,1,3.91-9.23c.88-1.67,1.81-3.23,2.74-4.67a66.08,66.08,0,0,1,9.13-11.09l.89-.85c.59-.57,1.22-1.18,1.92-1.81a51.55,51.55,0,0,1,5.33-4.33,45.41,45.41,0,0,1,7.22-4.14c.39-.17,1.11-.5,2.15-.91a53.44,53.44,0,0,1,13.15-3.19,55,55,0,0,1,24.19,2.8,56.8,56.8,0,0,1,23.69,16.33c3.36,3.73,7.49,8.41,10.16,15.83s2.5,14,2.28,20.56c0,.8-.06,1.63-.1,2.47a58.8,58.8,0,0,1-.94,8.6,46.11,46.11,0,0,1-1.9,7c-2.36,6.6-5.52,11-8.83,15.53a62.91,62.91,0,0,1-11.28,12.59,66.49,66.49,0,0,1-5.68,4.34,36.26,36.26,0,0,1-9.36,4.52c-7,2.21-12.7,1.66-19.77,1-1.41-.13-3.17-.31-5.22-.63A59.67,59.67,0,0,1,479.35,410c-1-.34-2.08-.74-3.15-1.18a62.26,62.26,0,0,1-12.94-7.24,45.81,45.81,0,0,1-8.85-7.56,43,43,0,0,1-7.14-11.49,49.49,49.49,0,0,1-3.1-11.13"/><path class="cls-30" d="M444.17,371.4l-.21-1.18"/><path class="cls-30" d="M478.85,304.88l.37-.05c2-.23,11-1.22,14.26-.37a113.17,113.17,0,0,1,17.78,6.31c5.58,2.5,8.54,3.83,12.33,6.5,4.1,2.9,9.5,6.82,13,14.05a33.81,33.81,0,0,1,3.1,11.13c.71,6.55-.62,11.54-2.2,17.46a86.69,86.69,0,0,1-4.49,12.5c-3,7.17-4.68,11-8.15,15.58A52.42,52.42,0,0,1,513,399.18c-2.08,1.45-4.73,2.93-10,5.91-5.45,3.06-8.17,4.59-10,5.24-5.33,1.92-11,.45-13.65-.43-.93-.32-1.49-.56-1.54-.56"/><path class="cls-30" d="M444,370v.19h0a5.09,5.09,0,0,0,.21,1.18v0a9.06,9.06,0,0,0,.55,1.4,56.84,56.84,0,0,0,3.52,6.42,33.68,33.68,0,0,0,8.05,8.85c3.18,2.36,5.82,3.26,11.1,5A73.5,73.5,0,0,0,482,396.47a53.7,53.7,0,0,0,12.18.38,48.05,48.05,0,0,0,11.08-2.42,17.2,17.2,0,0,0,4.95-2.28,25.32,25.32,0,0,0,5.25-5.65c-.14-.35-.31-.79-.49-1.31,0,0-.32-.92-.56-1.78-1.76-6.4.2-10.57.2-10.57,1.8-3.82,6.36-6.19,11.43-6.47a54.25,54.25,0,0,0,3.52-9.19c1.37-4.85,2.26-8,1.73-12.07-.71-5.5-3.63-9.3-5.73-12.05-2.42-3.15-4.73-5-8.78-8.23a71.74,71.74,0,0,0-9-6.22,83.54,83.54,0,0,0-13.07-5.89,52.85,52.85,0,0,0-8.58-2.79,43.43,43.43,0,0,0-8.76-.77,61.63,61.63,0,0,0-7.53.71h-.07c-2,.3-3.77,2.47-5.33,4.33a9.47,9.47,0,0,1-2.81,2.66.58.58,0,0,1-.21.07"/><path class="cls-30" d="M327.25,489.51c1-3.4,2.08-6.59,3.21-9.57a123.94,123.94,0,0,1,6.33-14c1.23-2.34,2.48-4.53,3.73-6.6a148.69,148.69,0,0,1,15.64-20.9,177,177,0,0,1,32.42-29.08c.91-.62,1.9-1.3,3-2,9.12-6.06,24.37-15.18,45-19,.91-.17,1.65-.3,2.12-.37"/><path class="cls-30" d="M391.45,407.55l.11-.23c9.6-19.61,10.74-34.62,10-44.67l0-.39c-.26-3.31-1.21-9.91-3.15-22.92-.06-.37-.11-.75-.17-1.13-2.69-17.91-2.93-18.11-3.88-25.46-1.5-11.48-2.58-19.8-2.74-30.79,0-1.39.37-10.11.76-18.07.33-7.16.66-13.71.66-13.71a29,29,0,0,1-10.91-22.68c0-3.66,0-10.2,4.78-15.87,6.31-7.49,15.79-7.38,16.94-7.35,2.14.06,9.89.28,15,6.75s3.65,14.09,3.42,15.23a8.58,8.58,0,0,1,9.17-3.95c5,1.24,6.08,6.92,6.15,7.33.88,5.16-3,8.76-3.52,9.2a11.29,11.29,0,0,1-7.71,2.72c1.14,2.31,2.43,5,3.82,8.07,1.48,3.27,3.07,7,4.69,11,3.48,8.65,5.66,14.09,7.61,21.71,2.79,10.92,4.44,17.38,4.5,26.19,0,1.52,0,3.22.11,5.08a25.2,25.2,0,0,0,2.08,8.69,35,35,0,0,0,2.27,4.28,14.34,14.34,0,0,0,1.16,1.38l.45.45"/><path class="cls-30" d="M392.13,264l.21-.13a28,28,0,0,1,5.84-3.07c5.2-2.15,7.06-1.87,15.29-4.09a78.58,78.58,0,0,0,14-4.89,5.57,5.57,0,0,0,2.56-2.15"/><path class="cls-30" d="M393,250.18a32.67,32.67,0,0,1,5.51-.88c2.7-.19,3.82.08,6.12-.14a24.45,24.45,0,0,0,6.24-1.49c5.05-1.81,6-3.75,10.64-5.18a22.31,22.31,0,0,1,4.83-.93"/><path class="cls-30" d="M419.73,224a19.53,19.53,0,0,1-7.07,10.92,19,19,0,0,1-7.76,3.4,20.74,20.74,0,0,1-15.38-2.71l-1.9-1.52"/><path class="cls-30" d="M520.56,442.58c-.13-.23-.27-.46-.41-.69a26.89,26.89,0,0,0-12.59-11.29,26.17,26.17,0,0,0-14.82-1.29,28.56,28.56,0,0,0-14.18,6.91c-5.14,4.7-6.92,10-8.89,16.19a69.63,69.63,0,0,0-3,15.74c-.25,2.83-.45,6-.59,9.74-.25,6.09-.45,11.2-.55,15.92-.11,5.64-.08,10.72.22,16.29.1,1.87.23,3.8.39,5.82.84,10.3,1.93,15.15-1.09,20.27-1.06,1.79-5,7.73-7.92,12.89s-3,5.93-7.36,14.29c-5,9.58-8.68,15.8-9.68,17.48L440,581c-2.21,3.72-4.12,6.77-5.46,8.88a10,10,0,0,0-6.62-1.94,9.16,9.16,0,0,0-7.14,4.13,9,9,0,0,0-.65,7.41l0,0a14.22,14.22,0,0,0-6.55,5.51c-3.87,6.34-.64,13.51.05,15,3.24,6.65,9.77,8.91,12.71,9.93,2.25.78,9,3.11,16.29.07,1.9-.79,8.1-3.37,10.37-10a15.81,15.81,0,0,0,.2-9.32l-.05-.17a106.79,106.79,0,0,0,12.19-8.82c1.25-1.06,2.53-2.17,3.81-3.35a105.59,105.59,0,0,0,13.55-15.11c6.65-9.09,10.08-17.07,12.9-23.32,1.32-2.91,3-7.77,4.52-12.23,1-2.88,1.91-5.58,2.64-7.51,5.74-15.16,6-17.78,9-25.68,1.34-3.49,2.29-5.83,3-7.54a96.72,96.72,0,0,0,3.92-9.51,133.61,133.61,0,0,0,4.18-14.2,82.61,82.61,0,0,0,2-17.84c0-8-.06-14.93-3.81-21.9-.16-.3-.32-.6-.5-.89"/><path class="cls-30" d="M440.41,581.22a36.56,36.56,0,0,1,3.94,5.43,32.94,32.94,0,0,0,8,9.53,29.92,29.92,0,0,0,9.08,4.86,16.5,16.5,0,0,0,2.67.67c.5,0,.29-.17,1.22,0l.46.08"/><path class="cls-30" d="M453.43,610.87l-.26-.2-5.14-4s-5.9-7.68-7.93-10.2-5.23-6.23-5.23-6.23"/><path class="cls-30" d="M401.83,362.63c1.35.39-.46-.49,1.72-.19a41.31,41.31,0,0,0,9.49.15,44.71,44.71,0,0,0,16.7-4.65,46.54,46.54,0,0,0,11.6-8.48c2-2,3.3-4.81,4.59-7.6a41.63,41.63,0,0,1,2.23-4.37l1.68-4.86.14-.41"/><path class="cls-30" d="M397.77,339.19l.6.15c2.24.52,3.42.55,7.85.26a42.45,42.45,0,0,0,12.49-3,63.48,63.48,0,0,0,13.5-7,65.93,65.93,0,0,0,8.73-6.7,21.74,21.74,0,0,0,5.91-9.33"/><path class="cls-30" d="M487.12,411.91q1.31.3,2.49.66a32.13,32.13,0,0,1,9.32,4.45c1.93,1.36,4.14,3.29,4.57,3.67,2,1.77,3.52,3.27,5,4.79,1.68,1.71,3.53,3.66,4.48,4.75a48.37,48.37,0,0,1,7.55,12.35s0,0,0,0c.25.54.49,1.11.74,1.7"/><path class="cls-30" d="M524.14,408c3.54,3.48,4.87,5.06,8.42,8.54l11.07,13.19,1.84,2.2,4.72,5.88.07.08,9.29,11.56a49.39,49.39,0,0,1,5.85,10.7c1.2,3,2.39,6,2.55,9.73.14,3.43-.63,7-3.88,13.23-2.14,4.1-6.48,11.48-17.62,22.9-.7.73-1.38,1.41-2,2.07-3.25,3.22-6.11,5.8-9.8,9.12-7,6.31-9.71,8.22-18.37,16-3.77,3.39-3.71,3.44-8.12,7.43-6.17,5.59-4.33,4.19-7.75,7.13"/><polyline class="cls-30" points="559.86 449.78 611.48 398.36 611.55 398.29"/><path class="cls-30" d="M552.05,368.31c2.26,1.06,3.36,1.73,6.69,5a25.48,25.48,0,0,1,7.2,10.82,24.84,24.84,0,0,1,.17,13.59c-.85,3.63-2.16,6-4.25,9.81a74.63,74.63,0,0,1-8.54,12.15c-1.56,1.9-3.31,3.81-6.77,7.56s-.59.08-2.56,2.15"/><path class="cls-30" d="M552.14,359.49l.45.14c1.66.56,2.26,1.09,5.07,2.72A37.56,37.56,0,0,1,570.81,375a32.21,32.21,0,0,1,3.82,26.13c-1.35,5.16-3.51,8.67-5.84,12.39a125.91,125.91,0,0,1-7.67,10.19c-5.76,7.26-5.87,7.05-9.15,11.42a16,16,0,0,0-1.78,2.6c0,.1,0,.11.07.08a3.76,3.76,0,0,0,.49-.41"/><path class="cls-30" d="M148.12,616.06c.21-.5.39-.84.46-1a17,17,0,0,1,6.71-6.87c5.22-3.05,10.51-2.54,13.1-2.26,9.37,1,17.58,7.15,22.46,14.79a31.74,31.74,0,0,1,4.88,14.08"/><g id="_Group_" data-name="&lt;Group&gt;"><g id="_Group_2" data-name="&lt;Group&gt;"><path class="cls-30" d="M147,626l0-.19a17.61,17.61,0,0,1,1.15-9.72"/><path class="cls-30" d="M465.64,510.1a111.19,111.19,0,0,1-10.48,15c-10.8,13.76-21.21,23-29.1,30-3.18,2.83-6.17,5.36-8.77,7.51-2.32,1.92-4.32,3.54-5.89,4.78-2.27,1.83-5,4-7.89,6.26-1.48,1.15-3,2.32-4.61,3.49-1.39,1-2.8,2-4.23,3-11.89,8.33-19.87,13.93-28.31,16.86a42.83,42.83,0,0,1-10,2.19c-9.67,1-17.45-1.27-22.17-2.62-8.48-2.42-13.67-6.34-24.72-12.34-7.57-4.12-21.61-14.54-29.69-17.54-1.39-.52-3.46-1.28-5.66-1.91-3.34-1-7-1.64-9.05-.74-1.34.6-2.37,2.14-3.38,4.14-.93,1.81-1.84,4-2.95,6.17-2.13,4.12-2.11,5-5.1,11.78-2.12,4.81-3.91,8.42-7.48,15.64-.81,1.63-2.88,5.79-4.93,9.75-8.69,16.79-17.49,30.84-19.23,33.62l-12.55,19.27A16.32,16.32,0,0,1,201,667.2c-3.88.07-6.78-1.45-9.25-2.85a138.43,138.43,0,0,1-17.31-11.7c-10.61-8.22-10.76-7.77-15.89-12.25-8.85-7.72-10.8-11.15-11.47-13.87-.05-.18-.09-.36-.12-.53"/></g></g><g id="_Group_3" data-name="&lt;Group&gt;" class="cls-13"><g id="_Group_4" data-name="&lt;Group&gt;"><path d="M147,626l0-.19"/><path d="M147,626h0c-.13-.08-1-.64.13.54.81.83,2.63,2.53,6.47,5.87,5.13,4.48,5.28,4,15.89,12.25a138.43,138.43,0,0,0,17.31,11.7c2.47,1.4,5.37,2.92,9.25,2.85a16.32,16.32,0,0,0,8.39-2.66L217,637.27c1.74-2.78,10.54-16.83,19.23-33.62,2-4,4.12-8.12,4.93-9.75,3.57-7.22,5.36-10.83,7.48-15.64,3-6.81,3-7.66,5.1-11.78,1.11-2.16,2-4.36,3-6.17,1-2,2-3.54,3.38-4.14,2.06-.9,5.71-.23,9.05.74,2.2.63,4.27,1.39,5.66,1.91,8.08,3,22.12,13.42,29.69,17.54,11.05,6,16.24,9.92,24.72,12.34,4.72,1.35,12.5,3.58,22.17,2.62a42.83,42.83,0,0,0,10-2.19c8.44-2.93,16.42-8.53,28.31-16.86,1.43-1,2.84-2,4.23-3,1.58-1.17,3.13-2.34,4.61-3.49,2.93-2.27,5.62-4.43,7.89-6.26,1.57-1.24,3.57-2.86,5.89-4.78,2.6-2.15,5.59-4.68,8.77-7.51,7.89-7,18.3-16.28,29.1-30C453.68,512.66,461,503.28,466,495l-.36,15.1a111.19,111.19,0,0,1-10.48,15c-10.8,13.76-21.21,23-29.1,30-3.18,2.83-6.17,5.36-8.77,7.51-2.32,1.92-4.32,3.54-5.89,4.78-2.27,1.83-5,4-7.89,6.26-1.48,1.15-3,2.32-4.61,3.49-1.39,1-2.8,2-4.23,3-11.89,8.33-19.87,13.93-28.31,16.86a42.83,42.83,0,0,1-10,2.19c-9.67,1-17.45-1.27-22.17-2.62-8.48-2.42-13.67-6.34-24.72-12.34-7.57-4.12-21.61-14.54-29.69-17.54-1.39-.52-3.46-1.28-5.66-1.91-3.34-1-7-1.64-9.05-.74-1.34.6-2.37,2.14-3.38,4.14-.93,1.81-1.84,4-2.95,6.17-2.13,4.12-2.11,5-5.1,11.78-2.12,4.81-3.91,8.42-7.48,15.64-.81,1.63-2.88,5.79-4.93,9.75-8.69,16.79-17.49,30.84-19.23,33.62l-12.55,19.27A16.32,16.32,0,0,1,201,667.2c-3.88.07-6.78-1.45-9.25-2.85a138.43,138.43,0,0,1-17.31-11.7c-10.61-8.22-10.76-7.77-15.89-12.25-8.85-7.72-10.8-11.15-11.47-13.87-.05-.18-.09-.36-.12-.53"/></g></g><path class="cls-30" d="M191.21,620.51s-2.23-3.59-1.91-5.26c0,0,8.71-46.47,35.28-85.17.62-.9,1.48-2.13,2.62-3.54a49.77,49.77,0,0,1,5-5.3,46.58,46.58,0,0,1,17.9-10.65c.84-.26,1.67-.49,2.48-.68a39.49,39.49,0,0,1,6.82-1,61.43,61.43,0,0,1,13.17.94c9.83,1.48,18,5,29.67,10.06l7.85,3.4"/><path class="cls-30" d="M157.54,512.68l.06-.08c11.89-14.78,19.75-24.55,30.19-35.3,9.93-10.22,15.53-14.49,17.71-16.1h0c5.52-4.08,9.67-7.15,15.74-9.47,3.7-1.41,11.65-4,26.69-2.41,1.7.17,3.38.38,5,.64,25.4,3.85,44.14,16.25,52.71,22.06,8.24,5.58,19.4,15.63,21.5,17.55.24.2.36.32.36.32"/><path class="cls-30" d="M398.7,576.89l.2.33c.82,1.36,4,6.54,6.08,9.38,2.3,3.1,7.68,9.17,11.3,10.49a12.29,12.29,0,0,1,3.82,2.4c.23.21.35.34.35.34"/><path class="cls-30" d="M340.44,459.09a1.63,1.63,0,0,0,.08.22c.44,1.23,2.65,7.34,4.83,12.48.71,1.69,1.42,3.28,2.06,4.55,1.95,3.85,2.49,4.39,13.06,21.51,7.74,12.54,9.64,15.79,11.44,18.46.52.77,1,1.49,1.67,2.37A186.22,186.22,0,0,0,389,537l.33.35c6.08,6.34,11.17,10.79,14.72,13.86,7.09,6.15,12.08,10.44,13.29,11.48l.28.23"/><path class="cls-30" d="M330.47,479.94c3,5.09,3.65,6.42,9.17,15.4,14.58,23.7,17.74,27.76,19.76,30.25A237.92,237.92,0,0,0,379.25,547c1.4,1.33,3.26,3.07,5.53,5.31,1.85,1.84,4,4,6.33,6.59,4.6,5,7.47,8.67,9.22,11,2.55,3.38,1.3,1,2.77,3.3"/><path class="cls-30" d="M372.1,516.18c1.45-2.61,2.22-3,5-6.7a85.37,85.37,0,0,1,9-10.07,105.11,105.11,0,0,1,11.72-9.84L380.32,465,368,450.31a62.77,62.77,0,0,0-15.38,12.9c-3.69,4.33-7.18,8.51-7.2,8.54"/><path class="cls-30" d="M389.26,537.37l0,0a51.9,51.9,0,0,1,6-3.19,92,92,0,0,0,18-11.33,96.35,96.35,0,0,0,14.16-14.37,126.41,126.41,0,0,0,12.06-17.21"/><path class="cls-30" d="M619.22,395.91a4.39,4.39,0,0,1-7.74,2.45,4.39,4.39,0,0,1,3.75-7.21A4.39,4.39,0,0,1,619.22,395.91Z"/><path class="cls-30" d="M544.56,508.18l-.15-.14c-4.35-4.09-3.5-3.13-6.42-6.2-3.81-4-5.59-6.11-6.65-9.41a18.5,18.5,0,0,1-.64-8.2c.62-4.36,2.95-8.85,11.64-16.64,12-10.71,13.07-9.71,19.17-13.58h0"/><path class="cls-30" d="M465.71,493.81c7.21,5.36,10,6.9,13.49,8.44l1.67.7a61.69,61.69,0,0,0,17.95,4.28c2,.21,3.95.31,5.75.32a65.72,65.72,0,0,0,10.2-.61h0"/><path class="cls-30" d="M466.6,468.09l.08.06a88.07,88.07,0,0,0,9.25,5.85c1.71.95,3.76,2.07,6.13,3.22a62.8,62.8,0,0,0,19.87,6.19c1.33.16,2.68.28,4,.36a104.87,104.87,0,0,0,16.91-.54c.07,0,.11,0,.12,0"/><path class="cls-30" d="M482.13,476.92a1.84,1.84,0,0,0-.07.3,87.52,87.52,0,0,0-2,12.08c-.21,1.82-.5,4.22-.64,7.41-.17,3.68-.19,5.06-.18,5.54a1.31,1.31,0,0,0,0,.21"/><path class="cls-30" d="M506,483.09c0,.23,0,.46-.07.68-.31,2.86-.56,5.27-.74,7.08-.65,6.59-.75,8.5-.79,10.43,0,2.62.06,4.75.14,6.12"/><path class="cls-30" d="M389.39,431.13a266.3,266.3,0,0,1,23.22,21.72c4.25,4.48,8.16,8.92,11.74,13.25a133.61,133.61,0,0,1,17.09-16.84c6.17-5.07,16-12.18,16-12.18-.92-1.44-2-3.1-3.34-4.94s-2.82-3.82-4.54-5.93a120.62,120.62,0,0,0-13.7-14.1c-6.43-5.74-13.86-11.33-13.94-11.4a71.56,71.56,0,0,0-8.6,4.71,71,71,0,0,0-23.93,25.71Z"/><line class="cls-30" x1="413.2" y1="430.5" x2="430.16" y2="446.24"/><line class="cls-30" x1="419.92" y1="423.62" x2="437.54" y2="439.42"/><line class="cls-30" x1="425.78" y1="418.7" x2="444.64" y2="435.96"/><circle class="cls-30" cx="415.83" cy="447.02" r="2.03"/><circle class="cls-30" cx="422.77" cy="453.06" r="2.03"/><rect class="cls-30" x="402.39" y="419" width="6.77" height="6.77" transform="translate(-176.57 359.64) rotate(-40)"/><rect class="cls-30" x="414.9" y="407.87" width="6.76" height="6.76" transform="translate(-166.52 365.41) rotate(-40.03)"/><path class="cls-30" d="M366.38,597.14h0c-3.69-3.47-4.09-4-6.82-11.11-2.57-6.76-1.9-10.63-1.69-11.69a18.59,18.59,0,0,1,3.35-7.18c3.59-4.85,7.89-6.31,14.41-9.6,3.76-1.88,2.86-.86,8.92-5"/><path class="cls-30" d="M227.27,526.58a20.76,20.76,0,0,0,5.83,3.23,20.36,20.36,0,0,0,10.78.94c.91-.18,8.43-1.76,12.77-8.54a14.15,14.15,0,0,0,1-1.79,19.44,19.44,0,0,0,1.68-11.4"/><path class="cls-30" d="M243.88,530.75s8.51,11.45,11.08,16.93a80.52,80.52,0,0,1,4.38,11.92,75.8,75.8,0,0,1,2.29,8.69"/><path class="cls-30" d="M274.18,564.64a65.06,65.06,0,0,0-1.26-8.94,71.86,71.86,0,0,0-2.6-9.05A67.37,67.37,0,0,0,265.56,535c-2.32-4.28-7.38-10.86-8.91-12.82-.27-.36-.44-.56-.44-.56"/><path class="cls-30" d="M229.9,473.18c0,.09,0,.18,0,.26a52.12,52.12,0,0,1,1,10.7,83.53,83.53,0,0,1-.88,10.11c-.12.91-.5,3.8-.7,7.69a1.93,1.93,0,0,1,0,.24v.15"/><path class="cls-30" d="M242.5,468.85h0a34.52,34.52,0,0,1,2.62,12.78c0,7.21-2.38,15.68-4.39,23.45a2,2,0,0,1-.07.26"/><path class="cls-30" d="M205.8,461.57a25.83,25.83,0,0,0,13.32,10.67,25,25,0,0,0,10.83,1.2,28,28,0,0,0,5.46-1.13,24.73,24.73,0,0,0,7.09-3.45l.17-.12a23.89,23.89,0,0,0,6.6-7.44,27.39,27.39,0,0,0,3.7-11.22"/><path class="cls-30" d="M115.81,504.62l-.52.67c-2,2.72-5.2,7.92-4.51,14.16a19.84,19.84,0,0,0,1.86,5.93c1.78,4,4.06,6.69,7.26,10.14s7.06,7.41,11.86,11.9l8.16,7.51,6.33,5.3c3.47,2.91,5.26,4.4,7.73,4.75a11.26,11.26,0,0,0,3.55-.1,12.68,12.68,0,0,0,6.24-3.12"/><path class="cls-30" d="M150.89,611.89a22.75,22.75,0,0,0-2.77,4.17s0,0,0,0a19.73,19.73,0,0,0-1.71,4.58,23.06,23.06,0,0,0-.59,6.74,28.2,28.2,0,0,0,2,8.32c2.53,6,8.67,11.11,19.3,20,3.68,3.09,13.61,11.41,23.74,15.66a12.8,12.8,0,0,0,4.66,1.08c6.82.21,12-5.52,13.94-7.94q4.68-7.06,9.38-14.12"/><path class="cls-30" d="M521.11,443.46c.79-.06,4.72-1,6.09-1.1,13.59-.92,17.46-1.24,24.31,2.13,2.51,1.23,6.57,4.7,10,9.52l0,.07"/><path class="cls-30" d="M256,509l-3.5.79s-2.64-.56-9.2-3.53l-2.57-1.17c-5.43-2.47-7.58-3.39-11.33-3.15l-.32,0c-5.87.47-8.14,4.62-24.3,21.63-.88.93.23-.24-13.42,13.76,0,0-4.19,4.3-13.37,13.09a80.79,80.79,0,0,1-8.79,7.38,49.28,49.28,0,0,1-5.54,3.72h0a7.74,7.74,0,0,1-3,1c-4.18.35-7.27-3-12.21-7.86-13.22-13.13-11-9.29-23.78-23.13-6-6.44-8.37-9.12-9.66-13.74-.56-2-2-7.18.29-12.49a3.76,3.76,0,0,1,.16-.37c4-8.7,14.89-9.94,16.5-10.1a23.9,23.9,0,0,1,15.26,4.05c3,1.93,7.73,7.73,9.22,11,.42.93.81,1.84,1.17,2.74A45.25,45.25,0,0,1,161,527.24"/><path class="cls-13" d="M115,504a109,109,0,0,0,7,14c4.77,8.12,10.41,12.84,19,20s19,14.1,19,14.1A187.47,187.47,0,0,0,178,537c4.67-4.44,9.11-9.26,18-18.9s13.5-15,22-20a35.45,35.45,0,0,1,9-4.1c10.19-2.72,19,.82,22,2.1A38.49,38.49,0,0,1,264.42,508l-8.42.1-3.5.78s-2.64-.55-9.2-3.52l-2.57-1.17c-5.43-2.48-7.58-3.39-11.33-3.15l-.32,0c-5.87.47-8.14,4.63-24.3,21.64-.88.93.23-.24-13.42,13.76,0,0-4.19,4.3-13.37,13.09a82.3,82.3,0,0,1-8.79,7.37,47.93,47.93,0,0,1-5.54,3.72h0a7.92,7.92,0,0,1-3,1c-4.18.34-7.27-3-12.21-7.86-13.22-13.13-11-9.29-23.78-23.13-5.81-6.28-8.43-9.68-9.66-13.74A23.33,23.33,0,0,1,115,504Z"/><path class="cls-13" d="M399,577l13-10,21-19,20-21,13-17a32.08,32.08,0,0,1-1,15c-1.49,4.63-3.86,8.11-9,14a196.33,196.33,0,0,1-18,18c-7.33,6.53-13.35,11.4-24,20-4.22,3.41-7.7,6.18-10,8-.7-1-1.4-2-2.11-3Z"/><path class="cls-13" d="M482,413c1.65,1.17,2,1.63,4,3a58.69,58.69,0,0,0,7,4c4.79,2.51,7.18,3.77,9,5a71.22,71.22,0,0,1,8.74,7.2h0l7,4.88-7-8.29L504,421l-9.17-6.8-10-2.2-11-3.31A36.53,36.53,0,0,1,482,413Z"/><path class="cls-13" d="M514,438c2.69,6.41,4,13.28,4,23,0,15.31-3.29,27.33-6,37-1.58,5.63-3.37,10.76-7,21-2.14,6-6.52,18.09-9,24-6.05,14.41-8.87,21.71-14,30-5,8-9.2,12.94-17,22a62.34,62.34,0,0,1-13,12,56.45,56.45,0,0,1-5,3,14,14,0,0,1,0,10,14.34,14.34,0,0,1-5,6c-2.87,2.18-6,3.1-9,4-1.39.41-2.57.69-3.39.86L443,630a19.47,19.47,0,0,0,11-12c-.33-2.33-.67-4.67-1-7l9.78-7.28,11-10L482,583l11-19,8.17-19.46,8.32-23.66L515,507l6.88-19.77,3-19.08L524.06,452l-4.63-11.85L511,432A51.56,51.56,0,0,1,514,438Z"/></g></g></svg>