<svg xmlns="http://www.w3.org/2000/svg" viewBox="0 0 25 25">
  <defs>
    <style>
      .cls-1 {
        fill: #fff;
      }
    </style>
  </defs>
  <g id="linkedin" transform="translate(-109.469 -109.468)">
    <path id="Path_2" data-name="Path 2" class="cls-1" d="M132.208,109.468H111.73a2.261,2.261,0,0,0-2.261,2.261v20.477a2.261,2.261,0,0,0,2.261,2.261h20.477a2.262,2.262,0,0,0,2.261-2.261V111.729a2.261,2.261,0,0,0-2.261-2.261Zm-15,21.587a.658.658,0,0,1-.658.658h-2.8a.658.658,0,0,1-.658-.658V119.311a.658.658,0,0,1,.658-.658h2.8a.658.658,0,0,1,.658.658v11.743Zm-2.059-13.509a2.661,2.661,0,1,1,2.661-2.662,2.661,2.661,0,0,1-2.661,2.662Zm16.7,13.562a.605.605,0,0,1-.6.605h-3.006a.605.605,0,0,1-.6-.605V125.6c0-.821.241-3.6-2.147-3.6-1.853,0-2.229,1.9-2.3,2.756v6.353a.605.605,0,0,1-.605.605h-2.907a.605.605,0,0,1-.605-.605V119.258a.605.605,0,0,1,.605-.605h2.907a.605.605,0,0,1,.605.605v1.024a4.127,4.127,0,0,1,3.882-1.827c4.813,0,4.786,4.5,4.786,6.968v5.684h0Z" transform="translate(0 0)"/>
  </g>
</svg>
