<svg xmlns="http://www.w3.org/2000/svg" xmlns:xlink="http://www.w3.org/1999/xlink" viewBox="0 0 375 667.01"><defs><style>.cls-1{fill:url(#linear-gradient);}.cls-2{fill:#f3f4f7;}.cls-3{fill:#ff2f6c;}.cls-4{fill:#dedfe0;}.cls-5{fill:#4d4d81;}.cls-6{fill:#4fa4f3;}.cls-7{fill:url(#linear-gradient-2);}.cls-8{fill:#ff8a5b;}.cls-9{fill:#bad64d;}.cls-10,.cls-11{fill:none;}.cls-10,.cls-11,.cls-13{stroke:#2b2b2b;stroke-miterlimit:10;stroke-width:2px;}.cls-11{stroke-linecap:round;}.cls-12{opacity:0.3;}</style><linearGradient id="linear-gradient" x1="187.5" y1="662.97" x2="187.5" y2="3.8" gradientUnits="userSpaceOnUse"><stop offset="0" stop-color="#591da9"/><stop offset="1" stop-color="#051960"/></linearGradient><linearGradient id="linear-gradient-2" x1="128.31" y1="518.77" x2="246.7" y2="518.77" gradientUnits="userSpaceOnUse"><stop offset="0" stop-color="#6681ea"/><stop offset="1" stop-color="#7e43aa"/></linearGradient></defs><title>Asset 8</title><g id="Layer_2" data-name="Layer 2"><g id="mobile-image"><rect class="cls-1" width="375" height="667"/><polygon class="cls-2" points="315.95 392.83 316.06 394.84 318.07 394.95 316.06 395.06 315.95 397.07 315.84 395.06 313.83 394.95 315.84 394.84 315.95 392.83"/><polygon class="cls-2" points="35.5 487.98 35.68 491.32 39.02 491.5 35.68 491.68 35.5 495.02 35.32 491.68 31.98 491.5 35.32 491.32 35.5 487.98"/><polygon class="cls-2" points="344.5 565 344.78 570.22 350 570.5 344.78 570.78 344.5 576 344.22 570.78 339 570.5 344.22 570.22 344.5 565"/><polygon class="cls-2" points="83.5 279 83.78 284.22 89 284.5 83.78 284.78 83.5 290 83.22 284.78 78 284.5 83.22 284.22 83.5 279"/><g id="_Group_" data-name="&lt;Group&gt;"><path class="cls-3" d="M317.62,641.45A104.94,104.94,0,0,1,320.43,666H298.05v-26.5h19.09C317.3,640.15,317.47,640.8,317.62,641.45Z"/><path class="cls-2" d="M107.69,666H54.57v-.34a112,112,0,0,1,9.07-42.17,104.1,104.1,0,0,1,22.08-32.7,107.8,107.8,0,0,1,55.87-29.41c.69,15.3,21.14,27.76,45.91,27.76,25,0,45.64-12.7,45.94-28.22,13.7,2.84,36.33,10.19,55.84,29.87a109.69,109.69,0,0,1,22,32.06,102.75,102.75,0,0,1,5.85,16.65H298.05V666h-53.3V640.1A11.82,11.82,0,0,0,233,628.32H142.26a11.82,11.82,0,0,0-11.78,11.78V666ZM137,597.4a10.9,10.9,0,1,0-10.89,10.89A10.89,10.89,0,0,0,137,597.4Z"/><path class="cls-4" d="M233.44,560.93c-3.94-.82-7.13-1.26-9.31-1.52-1.18.68-2.67,1.51-4.47,2.39a69.31,69.31,0,0,0,34.69-43.33h33.83A23.2,23.2,0,0,1,311.3,541.6l.29,81.12-.3.14a109.69,109.69,0,0,0-22-32.06C269.77,571.12,247.14,563.77,233.44,560.93Zm57.83-26.26a4.13,4.13,0,0,0-4.12-4.12H273.61a4.15,4.15,0,0,0-4.13,4.12,4.14,4.14,0,0,0,4.13,4.12h13.54a4.13,4.13,0,0,0,4.12-4.12Z"/><circle class="cls-3" cx="289.21" cy="445.44" r="4.12"/><path class="cls-5" d="M287.15,530.55a4.12,4.12,0,0,1,0,8.24H273.61a4.11,4.11,0,0,1-2.91-7,4.07,4.07,0,0,1,2.91-1.21Z"/><path class="cls-4" d="M256.71,500.51a69.14,69.14,0,0,1-37,61.29,73.37,73.37,0,0,1-53.07,4.7,69.23,69.23,0,0,1-36.85-104.11,14.72,14.72,0,0,0,21.06-20.56,68.66,68.66,0,0,1,30.31-10.23h0l0,.38a114.36,114.36,0,0,1-1.26,27.6,21.66,21.66,0,0,1-3.53,9.42c-3.74,5.25-9.32,7.3-12.26,8.12H153a24.63,24.63,0,0,0-24.64,24.64A58.66,58.66,0,0,0,187,560.42H188a58.67,58.67,0,0,0,58.67-58.66,24.65,24.65,0,0,0-24.65-24.64H210.9c-2.94-.82-8.52-2.87-12.25-8.12a21.56,21.56,0,0,1-3.54-9.42,114,114,0,0,1-1.25-27.6l0-.38h0a68.65,68.65,0,0,1,29.65,9.82l-.06.09a14.73,14.73,0,0,0,20.83,20.82l.64-.42A68.88,68.88,0,0,1,256.71,500.51Z"/><path class="cls-6" d="M245,461.91l-.64.42a14.73,14.73,0,0,1-20.83-20.82l.06-.09A69.44,69.44,0,0,1,245,461.91Z"/><path class="cls-2" d="M244.75,640.1V666H130.48V640.1a11.82,11.82,0,0,1,11.78-11.78H233A11.82,11.82,0,0,1,244.75,640.1Zm-8.25,4.12v-4.71H169.36v4.71Zm-.59,13.54v-4.71H168.77v4.71Zm-76,0V639.51H141.68v18.25Z"/><path class="cls-7" d="M246.7,501.76A58.67,58.67,0,0,1,188,560.42H187a58.66,58.66,0,0,1-58.66-58.66A24.63,24.63,0,0,1,153,477.12h69.1A24.65,24.65,0,0,1,246.7,501.76Z"/><rect class="cls-8" x="169.36" y="639.51" width="67.14" height="4.71"/><rect class="cls-6" x="168.77" y="653.05" width="67.14" height="4.71"/><path class="cls-4" d="M224.13,559.41c2.18.26,5.37.7,9.31,1.52-.3,15.52-20.92,28.22-45.94,28.22-24.77,0-45.22-12.46-45.91-27.76,4.12-.81,7.39-1.19,9.48-1.39a74.42,74.42,0,0,0,15.52,6.5,69.48,69.48,0,0,0,53.07-4.7C221.46,560.92,223,560.09,224.13,559.41Z"/><path class="cls-4" d="M210.9,477.12H164.1c2.94-.82,8.52-2.87,12.26-8.12a21.66,21.66,0,0,0,3.53-9.42,114.36,114.36,0,0,0,1.26-27.6l0-.38q3.15-.28,6.38-.29t6.39.29l0,.38a114,114,0,0,0,1.25,27.6,21.56,21.56,0,0,0,3.54,9.42C202.38,474.25,208,476.3,210.9,477.12Z"/><rect class="cls-9" x="141.68" y="639.51" width="18.26" height="18.26"/><path class="cls-4" d="M141.59,561.39A107.8,107.8,0,0,0,85.72,590.8a104.1,104.1,0,0,0-22.08,32.7l-.3-81.9a23.2,23.2,0,0,1,23.13-23.13h34.19a69.31,69.31,0,0,0,45.93,48,74.42,74.42,0,0,1-15.52-6.5C149,560.2,145.71,560.58,141.59,561.39Zm-35.84-26.72a4.13,4.13,0,0,0-4.12-4.12H88.08a4.12,4.12,0,0,0,0,8.24h13.55a4.15,4.15,0,0,0,4.12-4.12Z"/><path class="cls-6" d="M150.8,441.83a14.72,14.72,0,0,1-21.06,20.56A69.42,69.42,0,0,1,150.8,441.83Z"/><circle class="cls-3" cx="126.07" cy="597.4" r="10.9"/><path class="cls-5" d="M101.63,530.55a4.11,4.11,0,0,1,2.9,7,4.06,4.06,0,0,1-2.9,1.21H88.08a4.12,4.12,0,0,1,0-8.24Z"/><path class="cls-10" d="M254.35,518.47h33.83A23.2,23.2,0,0,1,311.3,541.6l.29,81.12"/><path class="cls-10" d="M63.64,623.9v-.4l-.3-81.9a23.2,23.2,0,0,1,23.13-23.13h34.18"/><path class="cls-10" d="M210.9,477.12h11.15a24.65,24.65,0,0,1,24.65,24.64A58.67,58.67,0,0,1,188,560.42H187a58.66,58.66,0,0,1-58.66-58.66A24.63,24.63,0,0,1,153,477.12h58Z"/><path class="cls-10" d="M245,461.91a69.23,69.23,0,1,1-63.84-30.31h0q3.15-.28,6.38-.29t6.39.29h0a68.65,68.65,0,0,1,29.65,9.82A69.44,69.44,0,0,1,245,461.91Z"/><path class="cls-10" d="M150.5,441.51c.1.1.21.21.3.32a14.72,14.72,0,0,1-21.06,20.56l-.06-.06"/><path class="cls-10" d="M223.48,441.51a14.73,14.73,0,0,0,20.83,20.82"/><path class="cls-10" d="M181.15,432a114.36,114.36,0,0,1-1.26,27.6,21.66,21.66,0,0,1-3.53,9.42c-3.74,5.25-9.32,7.3-12.26,8.12"/><path class="cls-10" d="M193.86,432a114,114,0,0,0,1.25,27.6,21.56,21.56,0,0,0,3.54,9.42c3.73,5.25,9.31,7.3,12.25,8.12"/><path class="cls-11" d="M130.48,666H54.57v-.34a112,112,0,0,1,9.07-42.17,104.1,104.1,0,0,1,22.08-32.7,107.8,107.8,0,0,1,55.87-29.41c4.12-.81,7.39-1.19,9.48-1.39a74.42,74.42,0,0,0,15.52,6.5,73.37,73.37,0,0,0,53.07-4.7c1.8-.88,3.29-1.71,4.47-2.39,2.18.26,5.37.7,9.31,1.52,13.7,2.84,36.33,10.19,55.84,29.87a109.69,109.69,0,0,1,22,32.06,102.75,102.75,0,0,1,5.85,16.65c.16.64.33,1.29.48,1.94A104.94,104.94,0,0,1,320.43,666H244.75"/><line class="cls-10" x1="107.69" y1="666.01" x2="107.69" y2="631.26"/><polyline class="cls-10" points="267.31 666.3 267.31 666.01 267.31 631.56"/><path class="cls-10" d="M233.44,560.58v.35c-.3,15.52-20.92,28.22-45.94,28.22-24.77,0-45.22-12.46-45.91-27.76,0-.27,0-.53,0-.81"/><path class="cls-10" d="M244.75,666H130.48V640.1a11.82,11.82,0,0,1,11.78-11.78H233a11.82,11.82,0,0,1,11.78,11.78Z"/><rect class="cls-10" x="141.68" y="639.51" width="18.26" height="18.26"/><rect class="cls-10" x="169.36" y="639.51" width="67.14" height="4.71"/><rect class="cls-10" x="168.77" y="653.05" width="67.14" height="4.71"/><polyline class="cls-10" points="317.14 639.51 298.05 639.51 298.05 666.01"/><circle class="cls-10" cx="126.07" cy="597.4" r="10.9"/><polyline class="cls-10" points="289.21 518.47 289.21 449.56 289.21 448.97"/><circle class="cls-10" cx="289.21" cy="445.44" r="4.12"/><path class="cls-10" d="M101.63,538.79H88.08a4.12,4.12,0,0,1,0-8.24h13.55a4.11,4.11,0,0,1,2.9,7A4.06,4.06,0,0,1,101.63,538.79Z"/><path class="cls-10" d="M287.15,538.79H273.61a4.11,4.11,0,0,1-2.91-7,4.07,4.07,0,0,1,2.91-1.21h13.54a4.12,4.12,0,0,1,0,8.24Z"/></g><g class="cls-12"><path d="M318.49,641.05a100.46,100.46,0,0,1,2.94,24.56H298v-26.5h20C318.15,639.75,318.33,640.4,318.49,641.05Z"/><path d="M232.44,560.52c-3.94-.81-7.13-1.26-9.31-1.51-1.18.68-2.67,1.51-4.47,2.39a69.31,69.31,0,0,0,34.69-43.33h33.83a23.2,23.2,0,0,1,23.12,23.12l.29,81.13-.3.14a109.69,109.69,0,0,0-22-32.06C268.77,570.71,246.14,563.37,232.44,560.52Zm59.83-26.25a4.13,4.13,0,0,0-4.12-4.12H274.61a4.15,4.15,0,0,0-4.13,4.12,4.14,4.14,0,0,0,4.13,4.12h13.54a4.13,4.13,0,0,0,4.12-4.12Z"/><path d="M288.15,530.15a4.12,4.12,0,0,1,0,8.24H274.61a4.11,4.11,0,0,1-2.91-7,4.07,4.07,0,0,1,2.91-1.21Z"/><path d="M246,461.51l-.64.42a14.73,14.73,0,0,1-20.83-20.83l.06-.08A69.44,69.44,0,0,1,246,461.51Z"/><polyline class="cls-13" points="268.31 665.9 268.31 665.61 268.31 631.15"/><path d="M311.29,622.46a109.69,109.69,0,0,0-22-32.06c-19.51-19.69-42.14-27-55.84-29.88-.3,15.42-20.65,28.05-45.44,28.22v39.17h45a11.83,11.83,0,0,1,11.78,11.78v25.92h53.3v-26.5h19.09A102.41,102.41,0,0,0,311.29,622.46Z"/><path d="M222.05,476.71H188V560h0a58.67,58.67,0,0,0,58.67-58.66A24.65,24.65,0,0,0,222.05,476.71Z"/><path d="M233,627.91H188v11.2h48.5v4.71H188v8.83h47.91v4.71H188v8.25h56.75V639.69A11.83,11.83,0,0,0,233,627.91Z"/><path d="M188,476.91h23.9c-2.94-.82-8.52-2.87-12.25-8.12a21.56,21.56,0,0,1-3.54-9.42,114,114,0,0,1-1.25-27.6l0-.38c-2.1-.19-4.23-.3-6.39-.3l-.5,0Z"/><path d="M224.13,559c-1.18.68-2.67,1.51-4.47,2.39A68.87,68.87,0,0,1,188,569.3v19.44c24.79-.17,45.14-12.8,45.44-28.22C229.5,559.71,226.31,559.26,224.13,559Z"/><path d="M246,461.51l-.64.42a14.73,14.73,0,0,1-20.83-20.83l.06-.08a68.51,68.51,0,0,0-29.65-9.82h0l0,.38a113.83,113.83,0,0,0,1.25,27.59,21.55,21.55,0,0,0,3.54,9.43c3.73,5.25,9.31,7.3,12.25,8.11h11.15a24.65,24.65,0,0,1,24.65,24.65A58.67,58.67,0,0,1,189,560h-1v9a73.85,73.85,0,0,0,32.66-7.61A69.22,69.22,0,0,0,246,461.51Z"/><rect x="188" y="639.11" width="49.5" height="4.71"/><rect x="188" y="652.65" width="47.91" height="4.71"/></g></g></g></svg>