<svg xmlns="http://www.w3.org/2000/svg" xmlns:xlink="http://www.w3.org/1999/xlink" viewBox="0 0 691.74 451"><defs><style>.cls-1{fill:url(#radial-gradient);}.cls-2{fill:#518436;}.cls-3{opacity:0.2;}.cls-4{fill:#f8ffb0;}.cls-5{opacity:0.4;}.cls-6{fill:#e8f987;}.cls-7{opacity:0.6;}.cls-8{fill:#e1ff61;}.cls-9{fill:#eaeaea;}.cls-10{opacity:0.49;}.cls-11,.cls-25{fill:#fff;}.cls-12{fill:#ddd;}.cls-13{fill:#e3e4e5;}.cls-14{fill:#e5e5e5;}.cls-15{fill:#58993a;}.cls-16{fill:#61a040;}.cls-17{fill:#6c6d6b;}.cls-18{fill:#282828;}.cls-18,.cls-24,.cls-25{opacity:0.3;}.cls-19{fill:url(#linear-gradient);}.cls-20{fill:url(#linear-gradient-2);}.cls-21{fill:#a5a5a5;}.cls-22{fill:#8c8c8c;}.cls-23{fill:url(#linear-gradient-3);}.cls-26,.cls-27{opacity:0.8;}.cls-27{fill:#ff2f6c;}</style><radialGradient id="radial-gradient" cx="600.5" cy="72.3" r="690.94" gradientUnits="userSpaceOnUse"><stop offset="0" stop-color="#2e8de1"/><stop offset="0.13" stop-color="#2b79c3"/><stop offset="0.33" stop-color="#265c97"/><stop offset="0.52" stop-color="#224777"/><stop offset="0.68" stop-color="#203a64"/><stop offset="0.79" stop-color="#1f355d"/></radialGradient><linearGradient id="linear-gradient" x1="111.04" y1="186.76" x2="165.83" y2="186.76" gradientUnits="userSpaceOnUse"><stop offset="0" stop-color="#757575"/><stop offset="1" stop-color="#e5e5e5"/></linearGradient><linearGradient id="linear-gradient-2" x1="61.93" y1="267.2" x2="149.92" y2="267.2" xlink:href="#linear-gradient"/><linearGradient id="linear-gradient-3" x1="62.18" y1="212.01" x2="134.7" y2="212.01" xlink:href="#linear-gradient"/></defs><title>Asset 7</title><g id="Layer_2" data-name="Layer 2"><g id="card-contents"><rect class="cls-1" x="0.44" width="691.3" height="448"/><path class="cls-2" d="M691.5,449.5c-13.66-16.23-23.48-29.11-30-38-3.43-4.67-8.81-12.14-17-22-3.37-4.05-9.65-11.62-15-17-7.51-7.58-26.54-26.82-55-30a79.51,79.51,0,0,0-37,5c-19.43,7.32-23.13,17.12-40,28-22.28,14.37-34.62,9.38-61.92,18-17.3,5.48-41.24,16.63-67,42L346.1,451Z"/><g class="cls-3"><circle class="cls-4" cx="601" cy="76" r="53"/></g><g class="cls-5"><circle class="cls-6" cx="601" cy="76" r="47.61"/></g><g class="cls-7"><circle class="cls-8" cx="601" cy="76" r="40.42"/></g><circle class="cls-9" cx="601.45" cy="75.55" r="33.24"/><g class="cls-10"><ellipse class="cls-11" cx="596.39" cy="70.83" rx="30.41" ry="26.61" transform="translate(124.6 442.45) rotate(-45)"/></g><circle class="cls-12" cx="596.98" cy="61.1" r="3.61"/><circle class="cls-12" cx="583.25" cy="76.27" r="6.5"/><circle class="cls-12" cx="606.73" cy="90.36" r="3.25"/><path class="cls-11" d="M548.62,131.86a8.89,8.89,0,0,0,.52-6.17c-1.38-4.54-6.57-6.8-10.28-6.68l-.32,0a20.56,20.56,0,0,0-40.8,3.58c0,.44,0,.87.05,1.3l-.31,0c-.42,0-5.15-.09-7.45,3.34a6.49,6.49,0,0,0-1,5.14c.76,2.67,3.67,4.63,7.2,4.63h42.72A10,10,0,0,0,548.62,131.86Z"/><path class="cls-13" d="M543.22,132.33a8,8,0,0,0,.47-5.61c-1.25-4.14-6-6.19-9.35-6.08h-.29a18.7,18.7,0,0,0-37.12,3.26c0,.4,0,.79.05,1.18h-.28c-.39,0-4.69-.09-6.78,3a5.85,5.85,0,0,0-.93,4.67c.68,2.43,3.33,4.21,6.54,4.21h38.86A9.1,9.1,0,0,0,543.22,132.33Z"/><path class="cls-11" d="M120.62,72.86a8.89,8.89,0,0,0,.52-6.17c-1.38-4.54-6.57-6.8-10.28-6.68l-.32,0a20.56,20.56,0,0,0-40.8,3.58c0,.44,0,.87.05,1.3l-.31,0c-.42,0-5.15-.09-7.45,3.34a6.49,6.49,0,0,0-1,5.14C61.76,76,64.67,78,68.2,78h42.72A10,10,0,0,0,120.62,72.86Z"/><path class="cls-14" d="M115.22,73.32a8.07,8.07,0,0,0,.47-5.62c-1.25-4.14-6-6.2-9.35-6.09h-.29a18.7,18.7,0,0,0-37.12,3.27c0,.4,0,.79,0,1.18H68.7c-.39,0-4.69-.09-6.78,3A5.89,5.89,0,0,0,61,73.79c.68,2.42,3.33,4.21,6.54,4.21h38.86A9.1,9.1,0,0,0,115.22,73.32Z"/><path class="cls-11" d="M686.29,43.75a7.29,7.29,0,0,0,.43-5.1c-1.14-3.76-5.43-5.63-8.51-5.53H678a17,17,0,0,0-33.75,3c0,.37,0,.72,0,1.08H644c-.36,0-4.27-.08-6.17,2.76a5.37,5.37,0,0,0-.85,4.25c.63,2.21,3,3.83,5.95,3.83h35.34A8.28,8.28,0,0,0,686.29,43.75Z"/><path class="cls-15" d="M.5,334.27s27.11-27,51.74-37.41c57.58-24.24,111.22-.91,120.21,3.18,20.18,9.21,33.85,21.12,52.54,37.42,25.4,22.15,27,33.52,50.95,51A195,195,0,0,0,326.5,414.5c29.9,10.71,42.23,7.58,75,19,16.85,5.87,38.43,17,38.43,17H.5Z"/><path class="cls-16" d="M0,392.06s13.51-13.48,25.79-18.65c28.7-12.08,55.44-.45,59.92,1.59,10.07,4.59,16.88,10.53,26.19,18.65,12.67,11,13.47,16.71,25.4,25.4a97.24,97.24,0,0,0,25.2,13c14.91,5.34,21.06,3.78,37.39,9.48A181.46,181.46,0,0,1,219.05,450H0Z"/><path class="cls-17" d="M106.05,230.14H62.18a43.87,43.87,0,0,1,87.74,0Z"/><path class="cls-18" d="M149.92,299.88.5,368.25V334s11-9.89,14.78-13c4.67-3.83,9.48-7.8,16.34-12.46,2.81-1.9,6-4.09,10.38-6.53a115.62,115.62,0,0,1,19.93-8.79Z"/><path class="cls-19" d="M165.83,179.82l-43,34.68L111,202.68,146.1,159a21.91,21.91,0,0,0,19.73,20.81Z"/><path class="cls-20" d="M149.92,299.88A237.16,237.16,0,0,1,105,304a236.28,236.28,0,0,1-43.07-4.12V230.4h88Z"/><polygon class="cls-21" points="137 280 150 279 150 300 137 302 137 280"/><polygon class="cls-22" points="177.24 170.61 165.84 179.81 146.1 159.01 154.8 148.18 177.24 170.61"/><path class="cls-22" d="M165.84,179.81h0A21.91,21.91,0,0,1,146.1,159Z"/><path class="cls-23" d="M98.44,230.14H62.18a36.26,36.26,0,0,1,72.52,0Z"/><ellipse class="cls-21" cx="165.84" cy="160.05" rx="12.68" ry="16.34" transform="translate(-63.09 133.43) rotate(-37.35)"/><ellipse class="cls-17" cx="166.91" cy="158.14" rx="4.37" ry="5.59" transform="translate(-61.71 133.69) rotate(-37.35)"/><ellipse class="cls-17" cx="165.88" cy="150.15" rx="1.17" ry="1.5" transform="translate(-57.08 131.42) rotate(-37.35)"/><g class="cls-24"><path class="cls-11" d="M263.5,378.5c-6.7-6.65-16.55-16.14-29-27-17.76-15.5-29.67-25.79-47-36A219.18,219.18,0,0,0,150,298l-.5-5.5a145.6,145.6,0,0,1,30,11c21.76,10.83,35.84,24.75,58,47C244.17,357.2,253.22,366.64,263.5,378.5Z"/></g><path class="cls-25" d="M422.84,398.17S442.56,394.73,449,393c4.53-1.22,17.74-6.1,17.74-6.1a149.27,149.27,0,0,0-15.35,2.57c-6.55,1.44-11.53,3-16.39,4.53S425.83,397.06,422.84,398.17Z"/><path class="cls-25" d="M524.34,354.06S541.2,348.27,547,347a117.54,117.54,0,0,1,22-2c7,.18,28.71,4,28.71,4s-10.73-4.2-14.47-5A118.34,118.34,0,0,0,564,342c-7,0-19.23,2.75-23,4C535,348,524.34,354.06,524.34,354.06Z"/><g class="cls-26"><polygon class="cls-11" points="319.5 109 319.96 116.04 327 116.5 319.96 116.96 319.5 124 319.04 116.96 312 116.5 319.04 116.04 319.5 109"/></g><polygon class="cls-27" points="404.5 247 404.96 254.04 412 254.5 404.96 254.96 404.5 262 404.04 254.96 397 254.5 404.04 254.04 404.5 247"/><g class="cls-7"><polygon class="cls-14" points="466.5 151 466.96 158.04 474 158.5 466.96 158.96 466.5 166 466.04 158.96 459 158.5 466.04 158.04 466.5 151"/></g></g></g></svg>