<svg xmlns="http://www.w3.org/2000/svg" viewBox="0 0 691.75 448"><defs><style>.cls-1{fill:#1f355d;}.cls-19,.cls-2{font-size:30px;}.cls-2,.cls-8{fill:#fff;}.cls-17,.cls-19,.cls-2,.cls-8{font-family:Lora-Regular, Lora;}.cls-3{letter-spacing:-0.32em;}.cls-4{letter-spacing:0.03em;}.cls-5{letter-spacing:0em;}.cls-6{letter-spacing:0em;}.cls-14,.cls-7{letter-spacing:-0.01em;}.cls-17,.cls-8{font-size:36px;}.cls-9{fill:#4fa4f3;font-family:Lora-BoldItalic, Lora;font-weight:700;font-style:italic;}.cls-10{letter-spacing:-0.03em;}.cls-11{fill:#bad64d;}.cls-12,.cls-17{fill:#ff2f6c;}.cls-13{letter-spacing:2.12em;}.cls-14,.cls-15{fill:#ff8a5b;}.cls-16{letter-spacing:-0.02em;}.cls-18{fill:#182c49;}.cls-19{fill:#bababa;}</style></defs><title>Asset 6</title><g id="Layer_2" data-name="Layer 2"><g id="card-contents"><rect class="cls-1" x="0.45" width="691.3" height="448"/><text class="cls-2" transform="translate(93.17 60)"><tspan class="cls-3">/</tspan><tspan x="11.07" y="0">/ de</tspan><tspan class="cls-4" x="73.87" y="0">f</tspan><tspan x="84.95" y="0">ine a fun</tspan><tspan class="cls-5" x="205.37" y="0">c</tspan><tspan x="221.19" y="0" xml:space="preserve">tion  w</tspan><tspan class="cls-6" x="316.8" y="0">i</tspan><tspan x="325.11" y="0">th 2 pa</tspan><tspan class="cls-7" x="420" y="0">r</tspan><tspan x="432.77" y="0">am</tspan><tspan class="cls-7" x="475.08" y="0">e</tspan><tspan x="491.12" y="0">ters</tspan></text><text class="cls-8" transform="translate(132.57 151)">def <tspan class="cls-9" x="62.68" y="0">function</tspan><tspan x="202.8" y="0"> </tspan><tspan class="cls-10" x="212.27" y="0">(</tspan><tspan class="cls-11" x="222.29" y="0">a, b</tspan><tspan x="280.41" y="0" xml:space="preserve"> ) </tspan><tspan class="cls-12" x="310.34" y="0">{</tspan><tspan class="cls-13" x="0" y="43.2">	</tspan><tspan class="cls-14" x="85.93" y="43.2">re</tspan><tspan class="cls-15" x="120.5" y="43.2">turn</tspan><tspan x="193.38" y="43.2" xml:space="preserve"> c = a + b</tspan><tspan class="cls-12"><tspan x="0" y="86.4">}</tspan></tspan></text><text class="cls-8" transform="translate(132.57 301)">x = <tspan class="cls-9" x="59.33" y="0">function</tspan><tspan x="199.44" y="0"> </tspan><tspan class="cls-16" x="208.92" y="0">(</tspan><tspan x="219.18" y="0">0 , 1)</tspan></text><text class="cls-17" transform="translate(575.21 414.47)">&lt;/&gt;</text><rect class="cls-18" width="50" height="448"/><text class="cls-19" transform="translate(19.54 60.06)">1<tspan x="-2.6" y="88">2</tspan><tspan x="-2.9" y="176">3</tspan><tspan x="-2.67" y="264">4</tspan><tspan x="-2.7" y="352">5</tspan></text></g></g></svg>