<svg xmlns="http://www.w3.org/2000/svg" viewBox="0 0 691.3 448"><defs><style>.cls-1{fill:#ff8a5b;}.cls-2{fill:#e5fc60;}.cls-3{fill:#383838;}.cls-4{fill:#474747;}.cls-5{fill:#d1d1d1;}.cls-6{fill:#fff;}.cls-7{fill:#a5a5a4;}.cls-8{fill:#c1c1c1;}.cls-9{fill:#898989;}</style></defs><title>Asset 5</title><g id="Layer_2" data-name="Layer 2"><g id="card-contents"><rect class="cls-1" width="691.3" height="448"/><polygon class="cls-2" points="3.3 445.5 38.68 293.5 654.68 293.5 688.04 445.5 3.3 445.5"/><path class="cls-3" d="M652.67,296l32.26,147H6.45L40.66,296h612m4-5h-620L.15,448h691L656.69,291Z"/><path class="cls-4" d="M129.23,331.7V89a2.5,2.5,0,0,1,2.5-2.5H559.57a2.5,2.5,0,0,1,2.5,2.5V331.7Z"/><path class="cls-3" d="M559.57,89V329.2H131.73V89H559.57m0-5H131.73a5,5,0,0,0-5,5V334.2H564.57V89a5,5,0,0,0-5-5Z"/><rect class="cls-5" x="319.85" y="372.5" width="51.59" height="36"/><path class="cls-3" d="M368.94,375v31H322.35V375h46.59m5-5H317.35v41h56.59V370Z"/><rect class="cls-6" x="138.16" y="96.92" width="414.97" height="224.35" rx="2.5" ry="2.5"/><path class="cls-3" d="M550.64,99.42V318.77h-410V99.42h410m0-5h-410a5,5,0,0,0-5,5V318.77a5,5,0,0,0,5,5h410a5,5,0,0,0,5-5V99.42a5,5,0,0,0-5-5Z"/><path class="cls-5" d="M131.73,371.91a2.5,2.5,0,0,1-2.5-2.5v-34.2H562.07v34.2a2.5,2.5,0,0,1-2.5,2.5Z"/><path class="cls-3" d="M559.57,337.71v31.7H131.73v-31.7H559.57m5-5H126.73v36.7a5,5,0,0,0,5,5H559.57a5,5,0,0,0,5-5v-36.7Z"/><polygon class="cls-7" points="209.29 445.5 235.51 409.5 455.96 409.5 482.02 445.5 209.29 445.5"/><path class="cls-3" d="M454.69,412l22.44,31H214.2l22.58-31H454.69m2.55-5h-223l-29.87,41H486.92l-29.68-41Z"/><rect class="cls-6" x="40.37" y="203.5" width="63.55" height="180" rx="7.5" ry="7.5"/><path class="cls-3" d="M96.42,206a5,5,0,0,1,5,5V376a5,5,0,0,1-5,5H47.87a5,5,0,0,1-5-5V211a5,5,0,0,1,5-5H96.42m0-5H47.87a10,10,0,0,0-10,10V376a10,10,0,0,0,10,10H96.42a10,10,0,0,0,10-10V211a10,10,0,0,0-10-10Z"/><path class="cls-5" d="M58.72,371a4.23,4.23,0,0,1,0-8.45H85.58a4.23,4.23,0,0,1,0,8.45Z"/><path class="cls-3" d="M85.58,365a1.73,1.73,0,0,1,0,3.45H58.72A1.72,1.72,0,0,1,57,366.7a1.7,1.7,0,0,1,1.7-1.7H85.58m0-5H58.72a6.7,6.7,0,0,0-6.7,6.7v0a6.71,6.71,0,0,0,6.7,6.71H85.58a6.71,6.71,0,0,0,6.7-6.71v0a6.7,6.7,0,0,0-6.7-6.7Z"/><circle class="cls-4" cx="72.15" cy="250" r="17.5"/><path class="cls-3" d="M72.15,235a15,15,0,1,1-15,15,15,15,0,0,1,15-15m0-5a20,20,0,1,0,20,20,20,20,0,0,0-20-20Z"/><circle class="cls-4" cx="72.15" cy="298" r="11.5"/><path class="cls-3" d="M72.15,289a9,9,0,1,1-9,9,9,9,0,0,1,9-9m0-5a14,14,0,1,0,14,14,14,14,0,0,0-14-14Z"/><rect class="cls-6" x="587.37" y="203.5" width="63.55" height="180" rx="7.5" ry="7.5"/><path class="cls-3" d="M643.42,206a5,5,0,0,1,5,5V376a5,5,0,0,1-5,5H594.87a5,5,0,0,1-5-5V211a5,5,0,0,1,5-5h48.55m0-5H594.87a10,10,0,0,0-10,10V376a10,10,0,0,0,10,10h48.55a10,10,0,0,0,10-10V211a10,10,0,0,0-10-10Z"/><path class="cls-5" d="M605.72,371a4.23,4.23,0,0,1,0-8.45h26.86a4.23,4.23,0,0,1,0,8.45Z"/><path class="cls-3" d="M632.58,365a1.73,1.73,0,0,1,0,3.45H605.72a1.72,1.72,0,0,1-1.7-1.75,1.7,1.7,0,0,1,1.7-1.7h26.86m0-5H605.72a6.7,6.7,0,0,0-6.7,6.7v0a6.71,6.71,0,0,0,6.7,6.71h26.86a6.71,6.71,0,0,0,6.7-6.71v0a6.7,6.7,0,0,0-6.7-6.7Z"/><circle class="cls-4" cx="619.15" cy="250" r="17.5"/><path class="cls-3" d="M619.15,235a15,15,0,1,1-15,15,15,15,0,0,1,15-15m0-5a20,20,0,1,0,20,20,20,20,0,0,0-20-20Z"/><circle class="cls-4" cx="619.15" cy="298" r="11.5"/><path class="cls-3" d="M619.15,289a9,9,0,1,1-9,9,9,9,0,0,1,9-9m0-5a14,14,0,1,0,14,14,14,14,0,0,0-14-14Z"/><rect class="cls-8" x="165.87" y="114.5" width="210.5" height="130.22"/><rect class="cls-9" x="390.87" y="114.5" width="130.5" height="17.5"/><rect class="cls-8" x="390.87" y="138.5" width="130.5" height="17.5"/><rect class="cls-8" x="193.87" y="255.5" width="182.5" height="17.5"/><rect class="cls-8" x="165.87" y="284" width="210.5" height="19"/><rect class="cls-8" x="390.87" y="166.5" width="130.5" height="136.5"/><circle class="cls-9" cx="175.37" cy="264" r="9"/></g></g></svg>